<svg id="图层_1" data-name="图层 1" xmlns="http://www.w3.org/2000/svg" viewBox="0 0 48 9"><title>期刊SVG</title><path d="M6.28,6.43l.26.26A2.77,2.77,0,0,1,4.17,8.24q-2.81-.13-3-3.78.2-3.7,3-4A3,3,0,0,1,5.39.89a1.54,1.54,0,0,0,.4.17q.23,0,.36-.52h.23V3.12h-.2Q5.42,1,4.2.89,2.64.89,2.65,4.41A6,6,0,0,0,3,6.82a1.56,1.56,0,0,0,1.29,1Q5.36,7.85,6.28,6.43Z"/><path d="M10.12.5q2.81.26,3,3.91-.17,3.65-3,3.82-2.85-.17-3-3.82Q7.28.76,10.12.5Zm0,.39Q8.67,1,8.6,4.41t1.52,3.52q1.49,0,1.49-3.52T10.12.89Z"/><path d="M13.53,8.11V7.85q.83,0,.76-.9V1.75q-.56-.86-.73-.82V.68h1.79l2.94,4.68V2.05Q18.36,1,17.5.93V.68h1.82V.93q-.73.09-.66.9v6.4h-.23L14.66,2.35V6.73q-.07,1.12.79,1.12v.26Z"/><path d="M23.82,7.85v.26h-3V7.85q.93.09.83-1V1Q20.15,1,20,2.87h-.23l0-2.19h5.06l0,2.19h-.26Q24.48,1,23,1v5.8Q22.89,7.94,23.82,7.85Z"/><path d="M25.24.93V.68h4.9V2.87h-.23Q29.81.93,28,1.06q-.7-.09-.63.52V4.11q1.29.13,1.39-1.63h.2v3.7h-.2q-.1-1.8-1.39-1.68V7.16q-.07.64.73.6,1.59,0,2.22-1.93h.23l-.33,2.28h-5V7.85q.83,0,.76-.82V1.75Q26,.93,25.24.93Z"/><path d="M30.87,8.11V7.85q.83,0,.76-.9V1.75Q31.07.89,30.9.93V.68h1.79l2.94,4.68V2.05Q35.7,1,34.84.93V.68h1.82V.93q-.73.09-.66.9v6.4h-.23L32,2.35V6.73q-.07,1.12.79,1.12v.26Z"/><path d="M41.16,7.85v.26h-3V7.85q.93.09.83-1V1q-1.49,0-1.65,1.85h-.23l0-2.19h5.06l0,2.19H42Q41.82,1,40.33,1v5.8Q40.23,7.94,41.16,7.85Z"/><path d="M46.55,2.87h-.23q-.5-2-1.65-2a.94.94,0,0,0-.93,1q-.1.77.89,1.33L45.86,4a2.36,2.36,0,0,1,.93,2q-.13,2.15-2.08,2.23A3.24,3.24,0,0,1,43.61,8a1.46,1.46,0,0,0-.36-.09c-.13,0-.22.1-.26.3h-.23V5.62H43q.43,2.32,1.75,2.32,1,0,1.06-1.2a1.4,1.4,0,0,0-1-1.33L44.27,5a2.56,2.56,0,0,1-1.46-2.32Q42.91.55,44.7.5a2.39,2.39,0,0,1,1,.26A1.06,1.06,0,0,0,46,.89q.23,0,.26-.39h.26Z"/></svg>