<svg xmlns="http://www.w3.org/2000/svg" xmlns:xlink="http://www.w3.org/1999/xlink" viewBox="0 0 341.5 13"><defs><style>.cls-1{fill:none;}.cls-2{isolation:isolate;}.cls-3{mix-blend-mode:darken;}.cls-4{clip-path:url(#clip-path);}.cls-5{fill:#eeeeef;}</style><clipPath id="clip-path"><rect class="cls-1" x="-7.75" y="-6.26" width="355.89" height="19.34"/></clipPath></defs><title>期刊SVG</title><g class="cls-2"><g id="图层_1" data-name="图层 1"><g class="cls-3"><g class="cls-4"><polygon class="cls-5" points="1.25 0.74 1.25 12.08 339.14 12.08 319.7 0.74 16.43 0.74 1.25 0.74"/></g></g><path d="M6.54,5.66q-.13-.37.78,0a.6.6,0,0,1,.22.53q-.06.25-.34.06a4.67,4.67,0,0,1-.56-.5Zm1.53.78s0,.27-.22.75-.33.87-.44,1.16A2,2,0,0,0,7.29,9c0,.27-.1.41-.19.41S6.69,9,6.57,8.48l.09-.06A1,1,0,0,0,7.07,8q.12-.22.47-.75Q8,6.38,8.07,6.44ZM7.16,4Q6.88,3.6,8,4.1a.6.6,0,0,1,.09.56q-.16.25-.37,0t-.28-.31A3.38,3.38,0,0,1,7.16,4Zm4.63,2.41a1.26,1.26,0,0,1,.78.47l0,.06a4,4,0,0,0-.59,1.5l.47-.06.28,0a1,1,0,0,1,.56.34c.13.17.1.25-.06.25a1,1,0,0,1-.28-.06,8.43,8.43,0,0,0-2.34-.06,15,15,0,0,0-1.91.34l-.22.06a1.33,1.33,0,0,1-.59-.16q-.25-.16,0-.19l1.22-.12a9.46,9.46,0,0,0-.31-1.31.48.48,0,0,1,0-.12A.75.75,0,0,0,8.57,7a.22.22,0,0,1,0-.19s.11,0,.28,0a.71.71,0,0,0,.25.06,17,17,0,0,0,2.56-.44Zm-.37-2.94a2,2,0,0,1,1,.56s0,.06-.09.13A.84.84,0,0,0,12,4.6q-.25.69-.34,1a.63.63,0,0,1-.28.38c-.08,0-.16,0-.22-.19L9.75,6a.28.28,0,0,1-.25.16.39.39,0,0,1-.12-.28A8.88,8.88,0,0,0,9,4.44a1.48,1.48,0,0,0-.25-.37c-.08-.08-.12-.13-.12-.16s.3-.06.66.06a6.53,6.53,0,0,0,2-.44ZM9.69,7l-.59.09.25,1.63.59-.09a6.16,6.16,0,0,1-.09-.81A5.19,5.19,0,0,0,9.69,7Zm1.72-3.09a7.37,7.37,0,0,0-2,.28l.13.66a6.36,6.36,0,0,0,.75-.19,1.9,1.9,0,0,1,.41-.09.75.75,0,0,1,.34.13c0,.06,0,.12-.12.16A3,3,0,0,1,9.5,5l.16.78a7.79,7.79,0,0,0,.81-.12,1.61,1.61,0,0,1,.69,0A3.74,3.74,0,0,0,11.41,3.94Zm-.72,3L9.85,7a2.25,2.25,0,0,1,.22,1.66l.53-.06A3.79,3.79,0,0,0,10.69,6.91Zm1-.06a3.36,3.36,0,0,0-.75,0c.15.08.22.15.22.19a1.36,1.36,0,0,1-.06.31q-.16.53-.28,1.19l.75-.06Q11.88,7.07,11.69,6.85Z"/><path d="M17.25,5a1.08,1.08,0,0,1,.56,0q.25.09.13.22l-.09.09a2.25,2.25,0,0,0-.41.47q.31.13.22.19a1,1,0,0,1-.47.09l-1.25.19a2.24,2.24,0,0,1-1.16,1.47c-.21.08-.32.12-.34.09s0-.08.16-.19a2.56,2.56,0,0,0,.94-1.37,1.3,1.3,0,0,0,0-.84q-.16-.31.44-.19A5.06,5.06,0,0,0,17.25,5Zm.69,1.22c0-.06.07-.07.16,0l.09,0q.53.16.31.28l-.87.19a1.22,1.22,0,0,1,.25.13s0,0,0,.13a.23.23,0,0,0,0,.09q.47-.09,1.34-.22c.42,0,.59.1.53.25a1,1,0,0,1-.47.06l-1.06.06a7.62,7.62,0,0,0,2.72,1c.25,0,.38.08.41.13s-.07.08-.28.13a4.37,4.37,0,0,1-1.22.06,6.34,6.34,0,0,1-.91-.53,10.05,10.05,0,0,0-1.06-.69c0,.08,0,.22,0,.41a1.23,1.23,0,0,1,0,.38,3,3,0,0,0,.59-.13q.72.13.72.47a2,2,0,0,0-.06.94,1.08,1.08,0,0,1-.37.88s-.1-.08-.19-.31-.12-.29-.16-.37A4.91,4.91,0,0,0,17,9.57c0,.19-.09.27-.16.25s-.15-.16-.19-.34a4.11,4.11,0,0,0-.16-1.28,6,6,0,0,1-.94.63q-.41.16-.44.13s.08-.13.31-.28a8,8,0,0,0,1.31-1.09L17,7.38l-.34.06-.53.06q-.47-.22-.22-.25t1.66-.19a1.44,1.44,0,0,0-.06-.37q-.88.16-.5-.06l.31-.12C17.7,6.38,17.92,6.28,17.94,6.19ZM16.69,2.76q.56.13.53.28a2,2,0,0,0-.16.66l.25,0a1.36,1.36,0,0,1,.34-.06c.25,0,.35.07.31.16s-.33.16-.94.28a2.63,2.63,0,0,0,0,.41h0a.57.57,0,0,1,.34-.06c.19,0,.26.07.22.16a5.69,5.69,0,0,1-1.44.31.46.46,0,0,1-.28-.09s0-.07.09-.09l.72-.16V4.07a3.38,3.38,0,0,1-.87.13q-.53-.06-.28-.19,1-.19,1.19-.25a1.37,1.37,0,0,0-.19-.81c0-.06-.05-.1,0-.12A.26.26,0,0,1,16.69,2.76Zm-.16,2.59-.5.09,0,.31c0,.21,0,.32,0,.34L16.5,6Zm1,1.91-.09,0a4,4,0,0,1-.84.84.71.71,0,0,1,.34,0L17.57,8C17.54,7.77,17.54,7.51,17.54,7.26Zm-.19-2.06q-.09-.09-.66.13c.17,0,.24.09.22.16s-.12.25-.22.5a1.59,1.59,0,0,0,.5-.09A1.64,1.64,0,0,0,17.35,5.19Zm1.13,3a4.76,4.76,0,0,0-1.53.13v.44a3.66,3.66,0,0,0,1-.19c.25,0,.38.05.41.16l0,0A3.38,3.38,0,0,1,17,8.94v.41l.56-.06a3,3,0,0,1,.69,0,.31.31,0,0,1,.16.06c.06.06.1.08.13.06A1.78,1.78,0,0,0,18.47,8.19Zm.88-5.06q.56-.06.56.25a.62.62,0,0,0-.25.41q-.06.31.56.13c.27,0,.36.08.28.25s-.4.09-.75.16-.5-.2-.44-.66V3.51a1.44,1.44,0,0,0-.5.09,1.14,1.14,0,0,1-.5,1.09c-.17.08-.27.12-.31.09s0-.08.13-.19a.84.84,0,0,0,.19-1.09q-.16-.28.41-.06A.83.83,0,0,0,19.35,3.13Zm.19,1.38c.29,0,.44.13.44.31-.06,0-.15.12-.25.28a1.79,1.79,0,0,1-.31.34,2.85,2.85,0,0,1,.84.31q.47.22.47.53t-.59-.09a3.26,3.26,0,0,0-.44-.25,3.08,3.08,0,0,1-.47-.31,2.24,2.24,0,0,1-.75.41c-.21.06-.31.07-.31,0s.09-.11.28-.22l.47-.31s0,0,.06,0l-.47-.16c-.27-.1-.37-.17-.31-.19s.38,0,.94.19c.21-.25.3-.42.28-.5s-.26,0-.66.13-.51-.08-.34-.19A2.56,2.56,0,0,0,19.54,4.51Z"/><path d="M23.85,3q.62.28.47.47A5.32,5.32,0,0,0,24.1,5a1.17,1.17,0,0,1,.56-.19q.53.06.31.25a1.53,1.53,0,0,1-.47.19,3.07,3.07,0,0,0-.44.13q0,.72,0,1l.28-.25A1.45,1.45,0,0,1,24.57,6c.15-.12.23-.17.25-.12s0,.1-.16.25l-.28.31a3.38,3.38,0,0,0-.34.38V8.48q0,1.19-.44,1.44s-.1-.06-.19-.25A3,3,0,0,0,23,9c-.06-.06-.08-.11-.06-.16s.07,0,.16,0l.13,0c.17.08.27.1.31.06s.15-.56.19-1.94a8.89,8.89,0,0,0-1.19,1.16c-.08.13-.25.08-.5-.12a.41.41,0,0,1-.16-.19s0-.07.13-.09A4.78,4.78,0,0,0,23.72,6.6c0-.17,0-.53,0-1.09a2.53,2.53,0,0,1-.87.25.83.83,0,0,1-.44-.16s0-.08.16-.12l1.06-.34.13,0V4.57q0-1.16-.19-1.28c-.1-.12-.12-.21-.06-.25S23.68,3,23.85,3Zm4,2.91q.81,0,.78.34a1.35,1.35,0,0,1-.66.13,12.44,12.44,0,0,0-1.28.06.39.39,0,0,1,.19.28,4.27,4.27,0,0,1,0,.66,2.12,2.12,0,0,1,.75-.22c.38,0,.5.08.38.25a1.48,1.48,0,0,1-1.12.13c0,.42,0,.72,0,.91a5.22,5.22,0,0,0,2.5.69q.62,0,.13.16l-.06,0a2.11,2.11,0,0,0-.41.06,4.17,4.17,0,0,1-1.19.09,10,10,0,0,1-1.5-1q-.5-.41-.81-.63a3.31,3.31,0,0,1-1,1.19c-.19.13-.3.17-.34.13s.05-.16.22-.34a2.55,2.55,0,0,0,.81-1.66c0-.12,0-.18.19-.16l.06,0c.29.1.41.2.34.28a2.1,2.1,0,0,0-.25.34l.94.63V8.13a8.56,8.56,0,0,0,0-1,1.57,1.57,0,0,0-.06-.56A11.42,11.42,0,0,1,25,6.79q-.47-.12-.28-.22a13.41,13.41,0,0,0,2.47-.47Zm-.47-2.56q.16-.09.56.13t.28.38a2.43,2.43,0,0,0-.5.84.52.52,0,0,1,0,.13,2.11,2.11,0,0,1-.44.91c-.06.06-.1.07-.12,0s-.06-.08-.06-.19a8.32,8.32,0,0,0-.94.16Q26,6.32,25.69,5a2.63,2.63,0,0,0-.34-1.09.2.2,0,0,1,0-.19c0-.06.07-.08.16-.06a1.08,1.08,0,0,0,.34.06A4.55,4.55,0,0,0,27.38,3.38Zm-.06.41a4.33,4.33,0,0,0-1.25.16l-.22,0a4.78,4.78,0,0,0,.13.69q1.06-.41,1,0,.09.16-1,.16l.13.75.28,0a2.71,2.71,0,0,0,.69-.16,2.92,2.92,0,0,0,.28-.94Q27.44,3.85,27.32,3.79Z"/><path d="M36.19,5.23a1.37,1.37,0,0,1,.84.28c.19.19.16.3-.09.34h-.31a16.1,16.1,0,0,0-2.87.09l.09,0c.23.08.34.17.34.25a.38.38,0,0,1,0,.22,8.73,8.73,0,0,0,0,1.63q.06,1.09-.5,1.34s-.12-.06-.25-.19a2.52,2.52,0,0,0-.5-.53l-.06-.06c-.21-.12-.19-.16.06-.09a.84.84,0,0,0,.59,0,3,3,0,0,0,.19-1.41A2,2,0,0,0,33.47,6a16.6,16.6,0,0,0-1.84.34,2.15,2.15,0,0,1-.44.06,1.2,1.2,0,0,1-.62-.19q-.16-.12.16-.16,2.41-.28,4.69-.69A7.05,7.05,0,0,1,36.19,5.23ZM32.07,6.82q.31.09.09,1t-.62.88q-.25-.19-.12-.72A4.77,4.77,0,0,0,32,6.88S32,6.82,32.07,6.82ZM34.91,3.6a.76.76,0,0,1,.66.19q.16.19-.28.28a14,14,0,0,1-2.34.41,1.05,1.05,0,0,1-.59-.19q-.16-.12.19-.16a9.32,9.32,0,0,0,1.78-.37Zm0,3.25a2,2,0,0,1,1.28.44q.59.66.19,1A4.73,4.73,0,0,1,34.94,6.85Z"/><path d="M39.59,8.73a.58.58,0,0,1,.56.53.57.57,0,0,1-.56.5.55.55,0,0,1-.53-.5A.56.56,0,0,1,39.59,8.73Zm0-2.19a.51.51,0,0,1,.53.53.53.53,0,1,1-1.06,0A.51.51,0,0,1,39.63,6.54Z"/><path d="M51.12,3.38q1,.22,1,.66a1.22,1.22,0,0,0-.28.84q0,1.06.13,2A10.93,10.93,0,0,1,52,8.6q-.06,1-.59,1.28-.12,0-.25-.37a6.56,6.56,0,0,0-.28-.84,24.37,24.37,0,0,0-3.5.25q-.06.66-.22.66t-.34-.69s0-.2.06-.47L47,7.76q.06-1.91,0-2.78a2.64,2.64,0,0,0-.22-.87c-.06-.1-.08-.18-.06-.22s.08,0,.19,0a1,1,0,0,1,.31.06l.19,0A28.43,28.43,0,0,0,51.12,3.38Zm-.28.47a17.79,17.79,0,0,0-3.37.41q0,.59,0,2.19t0,2.19q1.16-.09,2.66-.31l.72-.06q.16,0,.38.31c.1.15.18.21.22.19a3.87,3.87,0,0,0,.09-1.5,26.62,26.62,0,0,0-.19-2.94v0C51.3,4,51.15,3.87,50.84,3.85Zm-1.91.25q.75.22.63.47a1.54,1.54,0,0,0-.12.47c0,.19-.07.32-.09.41l.34-.12a4.49,4.49,0,0,1,.56-.16q.78,0,.5.31a6.66,6.66,0,0,1-1.09.25l-.34.06a2.34,2.34,0,0,1-1.44,2.13.6.6,0,0,1-.31,0s0-.07.19-.16a2.7,2.7,0,0,0,1.19-1.94l-.22.06a1.91,1.91,0,0,1-.47.06,1,1,0,0,1-.37-.19c-.06-.08,0-.11.13-.09a4,4,0,0,0,.94-.19,1.56,1.56,0,0,0-.12-1.12.31.31,0,0,1,0-.22S48.85,4.1,48.93,4.1Zm.72,2.44a3,3,0,0,1,.94.53.71.71,0,0,1,.09.63c-.06.13-.18.12-.34,0l-.22-.22Q48.93,6.29,49.65,6.54Z"/><path d="M58.4,5.41c.52.08.78.21.78.38a2.46,2.46,0,0,0-.53.44c.19.13.27.21.25.25a1.48,1.48,0,0,1-.44.06q-1.25.13-2.25.31a2.48,2.48,0,0,0-.09.25L56,7.51q2.38-.31,3.59-.59a.85.85,0,0,1,.56.13q.38.22.31.34-.22.16-.28,1.28t-.66,1.41c-.06,0-.15-.05-.25-.22A1.42,1.42,0,0,0,59,9.48c-.12-.12-.18-.2-.16-.22s.09,0,.22,0a.92.92,0,0,0,.34,0,2.69,2.69,0,0,0,.31-1.16c0-.48,0-.75-.12-.81s-.43,0-1.22.09c.13.08.17.16.13.22a1.27,1.27,0,0,0-.09.47A1.52,1.52,0,0,1,58.87,8q.41.09.28.22a1.37,1.37,0,0,1-.62.16h-.16c0,.08,0,.39-.12.91q-.09.34-.25.41t-.06-.41v0A7.52,7.52,0,0,0,58,8.41l-.75.09a2,2,0,0,1-.06.5c0,.23-.08.34-.12.34s-.11-.11-.16-.34V8.88a.7.7,0,0,0,0-.31c-.48,0-.66,0-.53-.16l.16,0,.38-.06V7.88a.93.93,0,0,0,0-.28l-.78.13v1.5q0,.5-.16.53t-.25-.47a2,2,0,0,1,0-.25,6.16,6.16,0,0,0,.06-1.28,4.76,4.76,0,0,1-1.84,1.75c-.12.06-.2.08-.22.06s0-.14.16-.22a6.08,6.08,0,0,0,1.84-2.19,1.66,1.66,0,0,0,.16-1.25q-.16-.31.53-.09A9.29,9.29,0,0,0,58.4,5.41ZM55.93,3.23q.59.16.47.28L56,4a4.58,4.58,0,0,0,.94-.19l.16,0c.35,0,.5.08.44.25a3.71,3.71,0,0,1-.94.16,1.42,1.42,0,0,1-.69-.06A3.12,3.12,0,0,1,55,5q-.28.22-.34.16s0-.15.19-.31a3,3,0,0,0,.88-1.5c0-.08,0-.13,0-.16A.38.38,0,0,1,55.93,3.23Zm-.06,1.25a.52.52,0,0,1,.5.16A.3.3,0,0,1,56.5,5c0,.13-.12.15-.25.06Q55.59,4.51,55.87,4.48Zm2.41,1.28A6.29,6.29,0,0,0,56.65,6c.08,0,0,0-.25,0l-.12.63a18,18,0,0,0,1.91-.31Q58.4,5.91,58.28,5.76ZM58,7.41l-.91.16a.49.49,0,0,1,.19.25v.41L58,8.1A1.39,1.39,0,0,0,58,7.41Zm-.81-2.47a2,2,0,0,1,.56.09h.06c.15.29.09.44-.16.44Q56.87,5,57.18,4.94Zm1.25-2a.09.09,0,0,1,.06,0c.33.08.46.19.38.31l-.22.38s-.06.07-.06.09a4.72,4.72,0,0,0,.69-.16L60,3.44q.63.06.47.25a6.2,6.2,0,0,1-2,.22,2.11,2.11,0,0,1-.56.63c-.23.13-.36.18-.41.16s0-.07.16-.22a2,2,0,0,0,.63-1.34q0-.16,0-.19S58.33,2.89,58.43,2.91Zm.25,1.31a.63.63,0,0,1,.53.13.38.38,0,0,1,.22.34c0,.19-.12.24-.25.16l-.09-.09Q58.47,4.26,58.68,4.23Z"/><path d="M63.15,3.26q.53.19.59.38a.48.48,0,0,1,0,.13,5.38,5.38,0,0,0-.16,1.41A1.81,1.81,0,0,0,64,4.94l.19-.06q.72.16.72.47a.77.77,0,0,0-.22.5Q64.56,7.38,64.09,7a.72.72,0,0,0-.31-.37q-.16-.12-.09-.19a.87.87,0,0,1,.34,0q.19,0,.22-.47.06-.72-.06-.75l-.31.06-.31.09q0,.38,0,1.28,0,1.19,0,1.78,0,1.19-.28,1.19A1,1,0,0,1,63.09,9a2.81,2.81,0,0,1,0-.28,19.63,19.63,0,0,0,.13-3.28l-.59.16q.09,2.09-.22,2t-.28-.53a.53.53,0,0,1,0-.12,2.62,2.62,0,0,0,.16-.81,2.47,2.47,0,0,0-.12-.72.24.24,0,0,1,0-.09c-.06-.17.08-.17.44,0l.59-.16A4,4,0,0,0,63,3.44a.16.16,0,0,1,0-.16A.19.19,0,0,1,63.15,3.26ZM68.71,7a2.05,2.05,0,0,0-.22.63,3.4,3.4,0,0,1-.41,1.72q-.25.28-.37-.25-.06-.19-.09-.19L65.5,9c0,.17-.05.26-.16.28s-.15-.06-.19-.19a3.84,3.84,0,0,1-.06-.47,5.2,5.2,0,0,0-.37-1.56c-.1-.17,0-.22.44-.16h.06q1.94-.31,2.69-.5l.09,0Q68.87,6.63,68.71,7ZM67.25,4.6q.84.16.66.44a2,2,0,0,0-.47.59c.15.08.23.16.25.22s-.06.07-.19.09Q67.06,6,66,6.23c0,.1-.06.17-.12.19s-.13-.05-.16-.16a5.33,5.33,0,0,0-.47-1.06Q65,4.85,65.78,5a7.71,7.71,0,0,0,1.31-.37ZM66.25,7l-1,.19.19,1.66.84-.09V7.94A1.27,1.27,0,0,1,65.9,8c-.29-.06-.36-.13-.22-.22l.28,0a2,2,0,0,0,.34-.06A2.68,2.68,0,0,0,66.25,7ZM67.5,3.38c.23,0,.37.05.41.16s-.07.19-.28.25a9.41,9.41,0,0,1-1.56.34q-.81-.12-.37-.25a5.85,5.85,0,0,0,1.22-.34A2.75,2.75,0,0,1,67.5,3.38ZM67.06,5a4.47,4.47,0,0,0-.81.19l-.44.09L66,6A6.6,6.6,0,0,0,67,5.73Q67.21,5,67.06,5Zm.72,1.84a2.08,2.08,0,0,0-.62.06,3.11,3.11,0,0,1-.5.06.48.48,0,0,1,.13.22.86.86,0,0,1,0,.16,1.37,1.37,0,0,0-.06.31l.16,0,.41-.09c.17,0,.27,0,.31.13s0,.15-.16.19a1.69,1.69,0,0,1-.41.06l-.31.06v.72l.78-.09h.06a.31.31,0,0,1,.16.06l.09,0q.16-.06.25-1.28C68,6.94,68,6.76,67.78,6.82Z"/><path d="M75.53,5.19A1.2,1.2,0,0,1,76.59,6s-.05.06-.16.06a2.58,2.58,0,0,0-1.09.28q-.41.22-.09-.19c.21-.27.28-.43.22-.47q-.41-.19-4.37.59a2.08,2.08,0,0,1-.28.91q-.19.34-.37.22a.85.85,0,0,1,0-.62,1.89,1.89,0,0,1,.16-.41l.19-.5c0-.12,0-.18.09-.16s.14.12.22.28l2.13-.34A12.61,12.61,0,0,0,75.53,5.19ZM73.87,6.38a1.15,1.15,0,0,1,.75.44s0,.08-.12.13a.64.64,0,0,0-.25.28q-.19.53-.53,1.31l.19.09a6.75,6.75,0,0,0,1.34.66q.31,0,1.06.19l.38.06c.19,0,.29.05.31.09s0,.08-.19.13q-1.84.38-1.94.13l-.09-.06a10.08,10.08,0,0,1-1.28-1,3.54,3.54,0,0,1-2.5.94c-.29-.06-.31-.12-.06-.19a3.88,3.88,0,0,0,2.22-1,4.56,4.56,0,0,0-1.09-.91q-.25-.12-.09-.19a.86.86,0,0,1,.47.09,2.34,2.34,0,0,1,.53.41,4.8,4.8,0,0,0,.38.34,3,3,0,0,0,.38-1.34s-.32,0-.84.16a2.31,2.31,0,0,1-.56.16.75.75,0,0,1-.37-.16c-.06-.06,0-.1.09-.12a4.82,4.82,0,0,0,1.72-.5A.33.33,0,0,1,73.87,6.38ZM71.68,4.73q-.22-.5.63.13a.39.39,0,0,1,0,.47q-.09.19-.28,0a1.36,1.36,0,0,1-.22-.37Zm2-1.81q.75.22.75.5a.69.69,0,0,1-.28.13,1.16,1.16,0,0,0-.31.09,14.39,14.39,0,0,1-1.59.5Q71.43,4.29,72,4a6.51,6.51,0,0,0,1.44-.72A.57.57,0,0,0,73.62,3,.06.06,0,0,1,73.68,2.91ZM72.9,4.51q-.09-.47.59.13.13.63-.25.47A1.37,1.37,0,0,1,72.9,4.51Zm1.78-.78a.84.84,0,0,1,.72.41.33.33,0,0,1-.16.13,1.32,1.32,0,0,0-.25.19q-.91.75-1.09.69s0-.09.16-.22a3.25,3.25,0,0,0,.53-.72.64.64,0,0,0,.06-.37A.13.13,0,0,1,74.68,3.73Z"/><path d="M79.87,3.63a1.57,1.57,0,0,1,.75.34s-.1.17-.31.38a2.64,2.64,0,0,0-.62.78,1.68,1.68,0,0,0,.31.75,2.13,2.13,0,0,1,.22.38.57.57,0,0,1,0,.5.09.09,0,0,0,0,.06s-.15,0-.31-.12l-.56-.37c-.25-.12-.2-.19.16-.19a.74.74,0,0,0,.31,0,.86.86,0,0,0-.06-.19,2.2,2.2,0,0,1-.19-.78,6,6,0,0,1,.38-1L79,4.35V8.19q0,1.22-.31,1.25c-.15,0-.24-.27-.28-.69a.89.89,0,0,1,0-.19,4.63,4.63,0,0,0,.19-1.38V5.29a1.86,1.86,0,0,0-.25-1.12.24.24,0,0,1,0-.09q.09-.09.56,0a1.52,1.52,0,0,0,.88-.41S79.85,3.63,79.87,3.63Zm2.94-.25q.66.06.81.41s0,.1-.12.19a.73.73,0,0,0-.22.34Q83,6.19,82.68,6.13s-.08,0-.12-.09-.1-.09-.12-.09a4,4,0,0,1-.94.19v.22a3.22,3.22,0,0,1,.94.69,1.85,1.85,0,0,0,.78-1,.41.41,0,0,1,.06-.16q.56.19.59.59s0,0-.12.06a2.34,2.34,0,0,0-.56.25l-.25.16-.34.22a5.52,5.52,0,0,0,2.28,1.16l.13,0c.25.06.38.1.38.13s-.07.05-.28.09a4.49,4.49,0,0,1-1.5.09,2.45,2.45,0,0,1-.5-.5q-.84-.94-1.59-1.63l-.12,2.22a6.92,6.92,0,0,0,.81-.5q.34-.19.38-.16a1.68,1.68,0,0,1-.28.31,6.6,6.6,0,0,0-1,1.16q-.12.19-.19.19a1.05,1.05,0,0,1-.34-.59s0-.05.06-.09a1.69,1.69,0,0,0,.28-1q.06-.81.09-2.34A4.08,4.08,0,0,0,81,3.82a.09.09,0,0,1,0-.06s.14,0,.34,0a1.31,1.31,0,0,0,.31.06,1.84,1.84,0,0,0,.84-.28A.84.84,0,0,1,82.81,3.38Zm-.09.44a6.39,6.39,0,0,0-1.22.25v.78l.5-.16.19-.06c.15,0,.23,0,.25.09s0,.15-.12.19l-.09,0a2,2,0,0,1-.69.09l0,.91.19,0a3.05,3.05,0,0,1,.88-.16,6.08,6.08,0,0,0,.19-1.09Q82.81,3.91,82.71,3.82Z"/><path d="M87,10.35l-.09-.06a1.18,1.18,0,0,0,.69-1.06h-.12q-.28,0-.37-.09-.5-.75.38-.91.75.06.59,1A1.53,1.53,0,0,1,87,10.35Z"/><path d="M98.07,3.19c.46,0,.66.13.59.31a6.33,6.33,0,0,1-1.78.44,1.34,1.34,0,0,1,.41.22.48.48,0,0,1,0,.13,1.73,1.73,0,0,0-.06.47,6.3,6.3,0,0,0,1.06-.22l.31-.06q.75.22.78.47,0,.09-.19.28a1.07,1.07,0,0,0-.28.38Q98.26,7.29,98,7.1s-.08-.05-.12-.16,0-.09-.06-.09-.38,0-.84.09A3.12,3.12,0,0,1,96.73,8a2.86,2.86,0,0,1,.34.22,6.21,6.21,0,0,0,3.31,1.09q.47,0,.47.09s-.06.07-.31.16a6.19,6.19,0,0,1-1.06.22,1.75,1.75,0,0,1-.69,0Q98,9.38,96.54,8.35a3.34,3.34,0,0,1-2.31,1.06,1.4,1.4,0,0,1-.59,0c0-.06.13-.1.44-.12A3.74,3.74,0,0,0,96.23,8.1q-.22-.16-.75-.47a1.66,1.66,0,0,0-.78-.25c-.15,0-.22-.06-.22-.12s.41-.16.84,0a8.52,8.52,0,0,1,.84.47,1.21,1.21,0,0,1,.22.16A4.4,4.4,0,0,0,96.61,7L95.92,7c0,.15-.06.22-.12.22s-.13-.07-.16-.22a3.83,3.83,0,0,0-.75-1.91c0-.06-.05-.1,0-.12s.21,0,.5,0l.31,0a6.82,6.82,0,0,0,1.09-.19A1.46,1.46,0,0,0,96.61,4h-.31l-.44,0c-.21,0-.34,0-.41-.12s.1-.07.31-.09a9.67,9.67,0,0,0,1.75-.44A2,2,0,0,1,98.07,3.19ZM96.76,5.07a11.43,11.43,0,0,1-1.19.22,8.83,8.83,0,0,1,.28,1.56l.78-.06A5.36,5.36,0,0,0,96.7,6q-1,.06-.53-.19l.56-.06C96.75,5.56,96.76,5.32,96.76,5.07Zm1.66-.19q-.06-.12-1.25.13a4.6,4.6,0,0,1-.06.69,1.61,1.61,0,0,0,.34-.09l.19,0q.47,0,.28.19a2.14,2.14,0,0,1-.84.19,3.76,3.76,0,0,1-.06.78l.28,0a1.33,1.33,0,0,1,.63,0A4,4,0,0,0,98.42,4.88Z"/><path d="M105.79,5.66q.41.25.34.41a1.09,1.09,0,0,0-.31.31,1.7,1.7,0,0,0,1.13-.19q.16,0,.5.25t.13.34a2.58,2.58,0,0,0-.78.81,6.77,6.77,0,0,1-3.94,2.34,1.5,1.5,0,0,1-.53.09s.1-.09.38-.22a8.73,8.73,0,0,0,3.44-2.19q.66-.78.56-1s-.06,0-.19,0a1.92,1.92,0,0,1-.5,0,.85.85,0,0,1-.22-.12l-.09,0a13.15,13.15,0,0,1-1.34,1q.63.16.72.34a.49.49,0,0,1,.06.53q-.16.16-.37-.09a5.91,5.91,0,0,1-.53-.72l-.28.13a.56.56,0,0,1-.28.09c-.27,0-.41.05-.41,0s.08-.09.31-.22a4.54,4.54,0,0,0,2-1.81C105.55,5.63,105.63,5.6,105.79,5.66Zm-.53-2.78c.33.19.47.32.41.41a2.66,2.66,0,0,0-.44.38,1.61,1.61,0,0,0,1.22-.28.72.72,0,0,1,.69.56,1.72,1.72,0,0,0-.69.53,6.79,6.79,0,0,1-3,2.06c-.17.06-.25.07-.25,0a1.05,1.05,0,0,1,.34-.22,6.74,6.74,0,0,0,2.78-2.5h-.16a2.28,2.28,0,0,1-.62,0,.59.59,0,0,1-.34-.12,8.57,8.57,0,0,1-.87.69c-.06,0-.09,0-.09.06a1.05,1.05,0,0,1,.59.28.35.35,0,0,1,.06.44c-.1.13-.22.1-.34-.06l-.28-.34a1.23,1.23,0,0,0-.16-.22,1.7,1.7,0,0,1-.5.22c-.21.06-.31.08-.31.06s.05-.06.22-.19q1.63-1.22,1.47-1.69c0-.1,0-.17.06-.19S105.14,2.82,105.26,2.88Z"/><path d="M114.17,4.32a.54.54,0,0,1,.53.38s0,.09-.12.16l-.25.22q-.72.81-1.12,1.19a5.78,5.78,0,0,0,1.38-.34l.09,0a1.84,1.84,0,0,1,.81.38.47.47,0,0,1-.06.19,1.36,1.36,0,0,0-.12.72,6.13,6.13,0,0,0,.06.63,7.42,7.42,0,0,1,.09,1.34q-.06.75-.5.94a1.41,1.41,0,0,1-.19-.41q-.16-.44-.22-.44a11.43,11.43,0,0,0-1.44.06l-.25,0a.8.8,0,0,1-.19.56.8.8,0,0,1-.25-.62V9.07a17.67,17.67,0,0,0,.09-2.16,9.37,9.37,0,0,1-2.75,1.88l-.22.06s0-.06.09-.12a11.41,11.41,0,0,0,2.88-2.25.23.23,0,0,0,0-.09c0-.06,0-.1,0-.12s.13,0,.25.06A12.44,12.44,0,0,0,114,4.82a1,1,0,0,0,.13-.34A.41.41,0,0,1,114.17,4.32Zm-2.56.09c.06-.27.15-.27.25,0a1.34,1.34,0,0,1,0,.81q-.22.53-.47.5-.31-.22-.09-.66A1.73,1.73,0,0,0,111.61,4.41Zm1.13-1.34a.92.92,0,0,1,.88.28.48.48,0,0,1,0,.13,1,1,0,0,0-.09.44q0,1.69-.22,1.63a.44.44,0,0,1-.28-.41.89.89,0,0,1,0-.19,3.06,3.06,0,0,0,0-1.25.79.79,0,0,0-.22-.5A.33.33,0,0,1,112.73,3.07Zm1.94,3.19a4.42,4.42,0,0,0-1,.16l-.75.16v.63a6.27,6.27,0,0,0,.75-.19,1.49,1.49,0,0,1,.41-.09.35.35,0,0,1,.34.09c0,.06,0,.12-.16.16a3.12,3.12,0,0,1-1.34.19v.81l.63-.19a2.85,2.85,0,0,1,.56-.12.54.54,0,0,1,.38.09c0,.08,0,.16-.19.22a3.29,3.29,0,0,1-1.37.13v.88a9.4,9.4,0,0,1,1.41-.28q.13,0,.38.19c.06.08.12.13.16.13a3,3,0,0,0,.09-1.38A4.38,4.38,0,0,0,114.67,6.26ZM114.86,4q-.31-.22.06-.25a2.17,2.17,0,0,1,1,.19.52.52,0,0,1,.25.47q0,.25-.28.16A8.33,8.33,0,0,1,114.86,4Z"/><path d="M117.95,7.94v0a3.16,3.16,0,0,1,2.22,1.63q.06.31-.22.38a.38.38,0,0,1-.37-.31A3,3,0,0,0,117.95,7.94Z"/><path d="M131.15,3.94a1.42,1.42,0,0,1,.94.28q.28.28-.28.28h-.66a15.21,15.21,0,0,0-2,.13v.94a6.09,6.09,0,0,0,1-.22l.13,0q.69.19.81.44a.38.38,0,0,1-.09.19.77.77,0,0,0-.12.44v.25a1.51,1.51,0,0,1,0,.63,1.36,1.36,0,0,1-.53.84s-.07-.05-.16-.16a3.76,3.76,0,0,0-.62-.75c-.17-.15-.12-.18.13-.09s.53.1.59.06.08-.31.06-.75-.09-.61-.16-.66a3.51,3.51,0,0,0-1.06.06V7.91q0,1.84-.31,2.09-.19,0-.22-1.28V5.88l-1,.16q0,2-.34,2.13-.22-.09-.22-.56a.74.74,0,0,1,.06-.25,3,3,0,0,0,.06-1.09.59.59,0,0,0-.12-.28c-.08-.15-.1-.24-.06-.28s.19,0,.5.09a.09.09,0,0,0,.06,0l1-.16v-1a17.38,17.38,0,0,0-1.78.25l-.56.06q-.81-.31-.34-.37a32.32,32.32,0,0,0,4.41-.56Zm-1.78-.62a.45.45,0,0,1,.06.5c-.1.15-.24.16-.41,0a3.13,3.13,0,0,1-.59-.56Q128.06,2.63,129.37,3.32Z"/><path d="M133.62,7.94v0a3.16,3.16,0,0,1,2.22,1.63q.06.31-.22.38a.38.38,0,0,1-.37-.31A3,3,0,0,0,133.62,7.94Z"/><path d="M145.92,3.38q1,0,.81.31a20.64,20.64,0,0,1-4.09.41l-.06,2.38q-.06,2.41-.09,2.41l1.88-.19a19.22,19.22,0,0,1,2.13-.19q.91.13.91.5-.09.13-.66.06a11.71,11.71,0,0,0-2.09,0q-2.34.19-2.44.41-.41,0-.41-.53.34-.19.41-2.53A8.12,8.12,0,0,0,142,3.94q-.16-.25,0-.31a1.43,1.43,0,0,1,.63.16A12.51,12.51,0,0,0,145,3.51Q145.79,3.38,145.92,3.38Zm-.41,1q.56.31.44.53c-.1.15-.25.39-.44.72l-.34.66a4.27,4.27,0,0,1,1,1,1.14,1.14,0,0,1,.09.75c-.06.13-.2.06-.41-.19a.89.89,0,0,0-.16-.19q-.59-.72-.84-1a3.32,3.32,0,0,1-1.44,1.25q-.37.16-.44.09s.08-.13.31-.28a6.39,6.39,0,0,0,1.31-1.31l-.16-.16q-.53-.53-.91-.87c-.15-.15-.22-.25-.22-.31s.15,0,.31.06.43.31,1.16.88a3.17,3.17,0,0,0,.44-1.47c0-.08,0-.15,0-.19S145.41,4.31,145.51,4.35Z"/><path d="M154,2.76v.06a4.83,4.83,0,0,0-1.56,3.69A4.56,4.56,0,0,0,154,10.1v.06a4.09,4.09,0,0,1-2.06-3.66A4.3,4.3,0,0,1,154,2.76Z"/><path d="M160.87,3.32a1.56,1.56,0,0,1,1,.44.54.54,0,0,1-.09.22,1.07,1.07,0,0,0-.22.53q0,.31,0,.81a14.3,14.3,0,0,0,0,1.59l.72-.09a2.84,2.84,0,0,1,1-.06.76.76,0,0,1,.56.34c0,.13-.07.18-.34.16a22.07,22.07,0,0,0-3.34.09c.13.13.18.22.16.28l-.16.13q-.5.41-1.31,1.13l2.53-.31a3.26,3.26,0,0,1-.22-.34,2.72,2.72,0,0,0-.16-.28q-.12-.56,1.25.84a.83.83,0,0,1,.09.66c-.08.17-.21.16-.37,0a4.84,4.84,0,0,1-.44-.59.39.39,0,0,0-.06-.09,13.14,13.14,0,0,0-2.78.69l-.22.06A.79.79,0,0,1,158,9s.05-.05.16-.09a2.37,2.37,0,0,0,.59-.37,2.51,2.51,0,0,0,.84-1.09q-.87.09-1.94.31l-.59.09a.83.83,0,0,1-.44-.28c-.06-.08,0-.12.16-.12h.09q1-.06,2.06-.19,0-.25,0-1,0-1.34-.06-1.75a1.15,1.15,0,0,0-.25-.59c-.06-.08-.08-.13-.06-.16s.17-.06.44,0l.25,0a3.67,3.67,0,0,0,1.63-.44A.09.09,0,0,1,160.87,3.32ZM161,4q0-.28-.28-.25a12.68,12.68,0,0,0-1.47.25l0,1,.66-.19a.94.94,0,0,1,.31-.09.54.54,0,0,1,.38.09q.06.09-.19.19a3,3,0,0,1-1.16.16V6a3,3,0,0,0,.63-.12,1.72,1.72,0,0,1,.34-.09.52.52,0,0,1,.41.09c.06.08,0,.15-.16.19a4.66,4.66,0,0,1-1.22.13v.94L161,7Q161,5.88,161,4Z"/><path d="M166.34,10.16V10.1a4.56,4.56,0,0,0,1.56-3.59,4.83,4.83,0,0,0-1.56-3.69V2.76a4.3,4.3,0,0,1,2.06,3.75A4.09,4.09,0,0,1,166.34,10.16Z"/><path d="M174.33,3.32q.69.38.53.53a4.93,4.93,0,0,0-.47.69,10.13,10.13,0,0,1-.62,1q.31.25.31.44,0,1-.06,3.22c0,.35-.05.53-.16.53s-.26-.22-.34-.53c0-.06,0-.21,0-.44s.1-.67.13-.94a7.7,7.7,0,0,0-.06-2.09,5.28,5.28,0,0,1-1,1q-.34.25-.37.22c0-.06.07-.2.28-.41q1.72-1.91,1.63-3a.19.19,0,0,1,0-.19A.23.23,0,0,1,174.33,3.32Zm2-.34q.63.19.56.41a1.52,1.52,0,0,1-.28.41,5.69,5.69,0,0,0,2.72,1.91c.19.06.29.12.31.16s-.08.1-.25.13a4.57,4.57,0,0,1-1.12,0,5.6,5.6,0,0,1-.94-1L176.51,4a.34.34,0,0,0-.06.13,4.8,4.8,0,0,1-1.84,2.41c-.17.1-.28.14-.34.09s0-.12.19-.25a5.09,5.09,0,0,0,1.72-3.19.18.18,0,0,1,0-.22S176.24,2.93,176.33,3ZM175.76,6c.4.1.54.24.44.41a2,2,0,0,0-.06.44c0,.23,0,.4-.06.5a2.37,2.37,0,0,1-1,1.75c-.23.13-.34.18-.34.16s.06-.1.25-.31A3,3,0,0,0,175.7,7a2.16,2.16,0,0,0-.09-.87c-.06-.08-.08-.13-.06-.16A.31.31,0,0,1,175.76,6Zm1.38-.37q.41.16.41.38a3,3,0,0,0,0,.88,11.4,11.4,0,0,0,.06,1.44q.06,1.34-.19,1.53c-.1,0-.21-.15-.31-.56V8.94q.06-.66.06-1.22a6.9,6.9,0,0,0-.22-1.91q-.16-.19-.09-.19S177,5.6,177.14,5.66Z"/><path d="M181.89,3.1q.63.28.53.47a5.22,5.22,0,0,0-.31,1.59,3.56,3.56,0,0,1,.78-.16c.27.06.38.15.31.25a2.7,2.7,0,0,1-1.09.31,3.46,3.46,0,0,1,0,.66v0a1.72,1.72,0,0,1,.69.09q.34.34.06.56a1.38,1.38,0,0,1-.34-.25,3,3,0,0,0-.41-.28V8.23a8.18,8.18,0,0,1,0,.91c0,.48-.11.73-.22.75s-.22-.28-.28-.72c0,0,0-.1,0-.25a7.65,7.65,0,0,0,.16-1.13q0-.41,0-1.69a6.86,6.86,0,0,1-1.37,2c-.17.15-.27.21-.31.19s0-.18.16-.34a11.77,11.77,0,0,0,1.31-2.25,3.12,3.12,0,0,1-.84.06.78.78,0,0,1-.37-.12c-.06,0,0-.07.13-.09a6,6,0,0,0,1.31-.28,4.84,4.84,0,0,0-.16-2q-.06-.12,0-.19A.38.38,0,0,1,181.89,3.1Zm2.31.28a.25.25,0,0,1,0-.16.29.29,0,0,1,.19,0q.75.19.5.38a4.73,4.73,0,0,0-.62.91q1-.12,1.13-.37.75.16.72.5a2.87,2.87,0,0,0-.75.84A6,6,0,0,1,185,6a6.25,6.25,0,0,0,2.47,1.09c.15,0,.23.06.25.13s-.06.08-.19.13l-.25,0a6.74,6.74,0,0,1-1.16.09,8,8,0,0,1-1.34-1.12,6.22,6.22,0,0,1-2,1.47,1.07,1.07,0,0,1-.47.13s.07-.1.28-.25A9.09,9.09,0,0,0,184.48,6l-.78-.62a3.23,3.23,0,0,1-.37.38c-.15.13-.24.17-.28.13s0-.17.16-.31A3.4,3.4,0,0,0,184.2,3.38Zm1.19,4.13q.75,0,.94.5a1.35,1.35,0,0,0-.5.78c.17.19.24.31.22.38a1.82,1.82,0,0,1-.72.09L184,9.32q0,.28-.09.28a.5.5,0,0,1-.25-.31,2.53,2.53,0,0,0-.06-.28,7.05,7.05,0,0,0-.22-1.06c0-.08-.05-.13,0-.16s0-.05.13,0l.41,0A5.49,5.49,0,0,0,185.39,7.51Zm-1-2.75-.22-.09c-.23.4-.37.59-.44.59a3.83,3.83,0,0,1,.88.53,2.65,2.65,0,0,0,.56-1.12s-.19,0-.44,0A1.7,1.7,0,0,1,184.42,4.76Zm1,3.19a2.11,2.11,0,0,0-.94,0l-.66.09A7.17,7.17,0,0,0,184,9V9.1q.38-.06.78-.09a1.27,1.27,0,0,0,.5-.12A1.14,1.14,0,0,0,185.42,7.94Z"/><path d="M189.61,5.32q.72.16.75.38a1.19,1.19,0,0,0-.34.84,9.55,9.55,0,0,0-.09,1.41q.09,0,.75-.41c.19-.12.29-.18.31-.16s0,.13-.19.25a6,6,0,0,0-1.34,1.47q-.06.16-.25-.19t0-.47a2.14,2.14,0,0,0,.41-1.34q0-.28,0-.81a1.28,1.28,0,0,0,0-.44,2.71,2.71,0,0,0-1.06.5q-.09,0-.37-.22c-.12-.15-.14-.22,0-.22a2.34,2.34,0,0,0,.75-.12,1.42,1.42,0,0,0,.66-.41S189.59,5.32,189.61,5.32Zm0-1.78a1.44,1.44,0,0,1,.91.22.39.39,0,0,1,.16.5q-.16.22-.47,0a.09.09,0,0,1-.06,0Q189,3.57,189.58,3.54Zm2.63-.81q.72.06.66.31a2.78,2.78,0,0,0-.16.84,3.54,3.54,0,0,0,.59-.16l.25-.09c.35,0,.52.08.5.25a5.1,5.1,0,0,1-1.25.25h-.09a1.19,1.19,0,0,0,0,.41v.19q.41-.09.69-.19.59,0,.38.25A8.68,8.68,0,0,1,192.7,5l0,.66q.41-.06,1.22-.25l.84-.19q.81.06.81.47a1.9,1.9,0,0,1-.75.06,13.32,13.32,0,0,0-3.78.5q-.53,0-.56-.31a8.57,8.57,0,0,0,1.88-.22,1.53,1.53,0,0,0,0-.62,1.19,1.19,0,0,1-.53.06.86.86,0,0,1-.37-.06c-.06,0,0-.08.09-.12l.81-.12a1.41,1.41,0,0,0,0-.59l-.22,0a2.22,2.22,0,0,1-.47.06.62.62,0,0,1-.37-.09c-.08-.06-.05-.1.09-.12l.5-.06a3.31,3.31,0,0,1,.47-.06,1.92,1.92,0,0,0-.16-1,.34.34,0,0,1-.06-.12C192,2.78,192,2.73,192.2,2.73Zm1,3.47q.66.13.72.53a1.13,1.13,0,0,0-.09.69v.22a3.13,3.13,0,0,0,.06.47A4.68,4.68,0,0,1,194,9.38q-.19.66-.41.75c-.08,0-.17,0-.25-.19a2.85,2.85,0,0,0-.44-.56c-.12-.06-.19-.11-.19-.16s.1,0,.25,0l.22,0a.38.38,0,0,0,.22,0,3.15,3.15,0,0,0,.06-1.44q-.09-1.09-.28-1.22a2.73,2.73,0,0,0-1.16.09v.59l.34-.09a1.13,1.13,0,0,1,.69,0q.19.09-.16.22a3.15,3.15,0,0,1-.87.13,1.93,1.93,0,0,1,0,.28c0,.17,0,.25,0,.25a4,4,0,0,0,.69-.13h0q.47,0,.38.19a2,2,0,0,1-1.12.16,5.3,5.3,0,0,1-.22,1q-.16.5-.28.44c-.1-.08-.17-.31-.19-.69a.71.71,0,0,1,.06-.25,2.33,2.33,0,0,0,.28-.91,2.81,2.81,0,0,0,0-1.16q-.19-.28,0-.28a.74.74,0,0,1,.38,0A1.91,1.91,0,0,0,193.17,6.19Z"/><path d="M198.73,3.51a.63.63,0,0,1,.63.5,1.55,1.55,0,0,0-.47.56l-.09.16a6.06,6.06,0,0,1-2.19,2.47q-.37.22-.44.19s0-.11.22-.28A5.66,5.66,0,0,0,198,5.41q-.69-.28-.69-.78a1.8,1.8,0,0,1,.59.19,1,1,0,0,1,.19.5q.69-1.37.59-1.41s-.16,0-.41.13a1.05,1.05,0,0,1-.37.16c-.33-.08-.48-.18-.44-.28A3.08,3.08,0,0,0,198.73,3.51Zm1.69,4.31c.35.19.49.32.41.41a5.45,5.45,0,0,0-.78.88l.88-.09.34-.06q.94.16.81.41a1.35,1.35,0,0,1-.72,0,16.64,16.64,0,0,0-1.75,0q-1.31.16-2,.31-.72-.13-.5-.34,1.25,0,2.63-.19.63-.91.5-1.22C200.16,7.81,200.23,7.78,200.42,7.82Zm-.19-1.5a.89.89,0,0,1,.88.44,1.4,1.4,0,0,0-.59.66v0c.06.08.07.15,0,.19a1.31,1.31,0,0,1-.41.06l-1.25.13c-.08.19-.16.26-.22.22s-.12-.17-.19-.44a.53.53,0,0,0,0-.12,1.45,1.45,0,0,0-.31-.66c-.1-.12-.12-.2-.06-.22a1.14,1.14,0,0,1,.5.09A6.65,6.65,0,0,0,200.23,6.32Zm-1.78,1.81h0a.85.85,0,0,1,.47.28.42.42,0,0,1,0,.44q-.12.19-.28,0Q198.23,8.13,198.45,8.13ZM200,5.35c.4,0,.56.08.5.25a5.19,5.19,0,0,1-1.66.31c-.35-.08-.46-.16-.31-.22a6.06,6.06,0,0,0,1.13-.25A1.22,1.22,0,0,1,200,5.35Zm.25,1.31a6.55,6.55,0,0,0-1.59.19l.16.78a7.36,7.36,0,0,0,1.31-.19A1.1,1.1,0,0,0,200.26,6.66ZM200.83,3c.29.19.4.31.31.38s-.36.24-1.09.53l.63.69q.81-.53.81-.78c0-.06,0-.09,0-.09a.23.23,0,0,1,.19,0q.66.38.44.44-.78.28-1.31.53a5.14,5.14,0,0,0,2.5,1.66c.19,0,.29.09.31.16s-.09.07-.28.09a4,4,0,0,1-1.31,0,9.17,9.17,0,0,1-1.22-1.37,11.73,11.73,0,0,0-1.19-1.41q-.22-.16-.09-.19a.6.6,0,0,1,.41.13q.63-.53.59-.78C200.52,3,200.62,2.94,200.83,3Z"/><path d="M206.42,3.85a.86.86,0,0,1,.66.31,1.09,1.09,0,0,1-.22.25,1.6,1.6,0,0,0-.62.91,1.54,1.54,0,0,0,.16.44q.5.94.13,1.28s-.07,0-.16-.12a1.89,1.89,0,0,0-.59-.47c-.21-.1-.21-.16,0-.16a.65.65,0,0,0,.38-.06s0-.21-.09-.5a1.72,1.72,0,0,1-.09-.34,1.45,1.45,0,0,1,.16-.47q.16-.41.09-.44a1.65,1.65,0,0,0-.78.16q0,1.56.06,4.06,0,1.09-.25,1T204.92,9a2.65,2.65,0,0,1,0-.34,18.11,18.11,0,0,0,.16-3.25,2.41,2.41,0,0,0-.25-.94c-.06-.08-.08-.13-.06-.16s.24-.08.53,0a1.68,1.68,0,0,0,.91-.37A.38.38,0,0,1,206.42,3.85Zm1.81-.62a1,1,0,0,1,.88.38,1.34,1.34,0,0,1,0,.22A7.8,7.8,0,0,0,209,5l.38-.12a1.53,1.53,0,0,1,.38-.09.76.76,0,0,1,.53.09q.09.13-.19.25a8.24,8.24,0,0,1-1.09.31v.91q.44-.06,1.09-.22a1.84,1.84,0,0,1,.63-.12.85.85,0,0,1,.56.34q.12.19-.25.19a7.11,7.11,0,0,0-2,.13l0,1.81,1.19-.16a2.8,2.8,0,0,0-.16-1,.22.22,0,0,1,0-.19.8.8,0,0,1,.75.47.52.52,0,0,1,0,.13,2,2,0,0,0-.09.63c0,.77-.05,1.15-.22,1.13s-.22-.21-.22-.62V8.54a6.35,6.35,0,0,0-2.84.75l-.09,0c-.1,0-.2-.18-.28-.47,0,0,0-.08.09-.12a.83.83,0,0,0,.19-.56A1.25,1.25,0,0,0,207,7.6c0-.06-.05-.1,0-.12a.57.57,0,0,1,.59.31.88.88,0,0,1-.06.41c0,.17-.07.31-.09.44l1.09-.12V6.69q-.47.06-1,.19a2.16,2.16,0,0,1-.37.06.61.61,0,0,1-.44-.19s.07-.08.28-.12l1.53-.25V5.51a2.66,2.66,0,0,1-.91,0q-.5-.12-.12-.22a4.24,4.24,0,0,1,.53-.12l.5-.09L208.48,4a1.49,1.49,0,0,0-.19-.5C208.21,3.35,208.19,3.27,208.23,3.23Z"/><path d="M217.42,3.51a1,1,0,0,1,.66.19q.38.28.28.41a1.09,1.09,0,0,0-.16.72q0,.5.06,1.53,0,.28,0,.78.06,1.19.06,1.5a1.4,1.4,0,0,1-.56,1c-.06,0-.15,0-.25-.19a2.11,2.11,0,0,0-.53-.66c-.12-.12-.18-.21-.16-.25s.11,0,.28.06.47.13.53.06a5.14,5.14,0,0,0,.19-2.44q-.06-2.75-.66-2.31h-.09a21.14,21.14,0,0,0-3.34.41q0,.31-.06,2-.06,1.38-.06,2,0,.94-.22,1-.34-.09-.34-.84v0a13.36,13.36,0,0,0,.31-2.72,4.17,4.17,0,0,0-.09-1.53q-.12-.31.06-.28h.06l.38.09A20.09,20.09,0,0,0,217.42,3.51Zm-2.19,1.28c.27.15.39.26.34.34l-.16.41-.31.78a5.5,5.5,0,0,1,.41.59.54.54,0,0,1,0,.53q-.16.13-.28-.19a1.37,1.37,0,0,0-.28-.53,3.86,3.86,0,0,1-.75,1.19q-.28.25-.34.22s.05-.16.22-.34a8,8,0,0,0,.69-1.37c-.1-.19-.24-.42-.41-.69a1.43,1.43,0,0,1-.19-.31c0-.08-.05-.13,0-.16s.06,0,.13.06a1,1,0,0,1,.13.16c.17.19.33.39.5.59A2.11,2.11,0,0,0,215.08,5a.2.2,0,0,1,0-.16A.14.14,0,0,1,215.23,4.79Zm1.5-.19q.53.25.44.41a4.38,4.38,0,0,0-.25.69,4,4,0,0,1-.19.56l.16.19a2.28,2.28,0,0,1,.41.47.82.82,0,0,1,.09.72c-.08.17-.2.13-.34-.12L217,7.29c-.12-.25-.25-.48-.37-.69a3.29,3.29,0,0,1-.94,1.34c-.15.08-.23.12-.25.09s0-.09.09-.22a6.77,6.77,0,0,0,.84-1.47,6.27,6.27,0,0,0-.56-.72c-.06-.1-.08-.17-.06-.19s.07,0,.16.06a7.31,7.31,0,0,1,.59.53,2,2,0,0,0,.13-1.25C216.55,4.64,216.61,4.58,216.73,4.6Z"/><path d="M222.64,6a.8.8,0,0,1,.72.41.65.65,0,0,1-.12.25q-.28.5-.62,1.22l.47-.12a2.64,2.64,0,0,1,.44-.12.13.13,0,0,1,.09,0,.06.06,0,0,1,0,.09,23.59,23.59,0,0,0-2.41,1.19,1.36,1.36,0,0,1-.25.13.82.82,0,0,1-.75-.5l.09,0A5.49,5.49,0,0,0,222.33,8a2.79,2.79,0,0,0,.31-1.84A.13.13,0,0,1,222.64,6Zm.47-.81a.82.82,0,0,1,.56.13c.1.08.06.16-.12.22a11.69,11.69,0,0,1-2.09.47q-.84-.06-.66-.22a9.5,9.5,0,0,0,1.72-.41Zm-1.87,1.5q.22-.19.69.41,0,.63-.37.44A2.19,2.19,0,0,1,221.23,6.69Zm.47-2.84q.22-.16.94.16a.72.72,0,0,1,.22.56q-.09.28-.37.13A3.77,3.77,0,0,1,221.7,3.85Zm2.84-.62a1.34,1.34,0,0,1,.94.38s0,.06,0,.13a4.42,4.42,0,0,0-.16,1.5,4.18,4.18,0,0,0,.81-.28,1.21,1.21,0,0,1,.47-.16.68.68,0,0,1,.56.16c.08.1,0,.19-.22.25a3.74,3.74,0,0,1-1.66.22l0,1.78A4.87,4.87,0,0,0,226,7a1.34,1.34,0,0,1,.31-.09q.91.28.94.56a.66.66,0,0,1-.12.16,3.58,3.58,0,0,0-.53,1.09c.19.08.29.17.31.25s-.08.14-.25.16q-1.19.16-2.16.19c0,.23-.11.32-.22.28s-.15-.2-.19-.47l-.12-.91a2,2,0,0,0-.25-.78.16.16,0,0,1,0-.16.92.92,0,0,1,.66.13l.63-.12q0-1.84-.06-2.81a2.41,2.41,0,0,0-.25-.94C224.52,3.38,224.5,3.29,224.54,3.23Zm1.63,4.13a4.18,4.18,0,0,0-1.87.25l.13,1.47,1.66-.34Q226.36,7.48,226.17,7.35Z"/><path d="M233.31,2.76v.06a4.83,4.83,0,0,0-1.56,3.69,4.56,4.56,0,0,0,1.56,3.59v.06a4.09,4.09,0,0,1-2.06-3.66A4.3,4.3,0,0,1,233.31,2.76Z"/><path d="M239.68,9.29h-.22l-.94-2.19-1,2.19h-.22l-1.19-2.59a.7.7,0,0,0-.59-.44V6.13h1.53v.13c-.21,0-.33.07-.37.16s0,.2.06.41l.88,1.91.75-1.84q-.19-.53-.56-.59l-.19,0V6.13h1.63v.13q-.56,0-.34.53l.81,1.91.75-1.88c.1-.21.11-.35,0-.44s-.23-.12-.5-.12V6.13h1.34v.13a.8.8,0,0,0-.66.59Z"/><path d="M245.56,9.29h-.22L244.4,7.1l-1,2.19h-.22L242,6.69a.7.7,0,0,0-.59-.44V6.13H243v.13c-.21,0-.33.07-.37.16s0,.2.06.41l.88,1.91.75-1.84q-.19-.53-.56-.59l-.19,0V6.13h1.63v.13q-.56,0-.34.53l.81,1.91.75-1.88c.1-.21.11-.35,0-.44s-.23-.12-.5-.12V6.13h1.34v.13a.8.8,0,0,0-.66.59Z"/><path d="M251.43,9.29h-.22l-.94-2.19-1,2.19h-.22L247.9,6.69a.7.7,0,0,0-.59-.44V6.13h1.53v.13c-.21,0-.33.07-.37.16s0,.2.06.41l.88,1.91.75-1.84q-.19-.53-.56-.59l-.19,0V6.13H251v.13q-.56,0-.34.53l.81,1.91.75-1.88c.1-.21.11-.35,0-.44s-.23-.12-.5-.12V6.13h1.34v.13a.8.8,0,0,0-.66.59Z"/><path d="M254.15,8.63a.39.39,0,0,1,.41.38c0,.21-.14.31-.41.31s-.39-.1-.41-.31A.39.39,0,0,1,254.15,8.63Z"/><path d="M258.93,6.26v.53l-.78-.09a.84.84,0,0,1,.16.5q-.12,1.12-1.44,1.19a.78.78,0,0,1-.34-.09,1.83,1.83,0,0,1-.25.19c-.17.08-.25.16-.25.22s.34.3,1.16.28,1.33.09,1.44.28a.59.59,0,0,1,.25.5q-.28,1.25-2.19,1.31-1.16,0-1.22-.75,0-.28.41-.59a2.22,2.22,0,0,0,.44-.37q-.69-.06-.75-.5,0-.25.47-.41l.34-.19a1.07,1.07,0,0,1-.78-1A1.32,1.32,0,0,1,257,6a1.08,1.08,0,0,1,.91.34,5.25,5.25,0,0,0,1-.12S258.85,6.28,258.93,6.26Zm-3,3.78q.16.72,1.19.81,1.19-.09,1.34-.94,0-.41-.56-.47a4.05,4.05,0,0,0-.72,0l-.72,0a1.08,1.08,0,0,1-.22.22C256,9.77,255.93,9.91,255.93,10Zm1.81-2.78q0-1-.84-1.06t-.78.91q.09,1,.84,1.09T257.75,7.26Z"/><path d="M261.9,8.51l.13.06a1.62,1.62,0,0,1-1.44.75q-1.19,0-1.31-1.47A1.83,1.83,0,0,1,261.12,6q.81,0,.88.47c0,.13-.08.2-.25.22a.61.61,0,0,1-.41-.22.79.79,0,0,0-.53-.28q-.91.16-1,1.44.09,1.31,1.16,1.41A1.18,1.18,0,0,0,261.9,8.51Z"/><path d="M264.34,4.19h.28V8.85q0,.31.28.28h.47v.16h-2V9.13h.44q.31,0,.28-.31v-4a4.26,4.26,0,0,1-1,.66L263,5.38A6.58,6.58,0,0,0,264.34,4.19Z"/><path d="M269.22,4.19l.09.13a3.08,3.08,0,0,0-2.09,2.47,1.67,1.67,0,0,1,1.16-.47,1.44,1.44,0,0,1,1.41,1.47,1.57,1.57,0,0,1-1.56,1.56q-1.59-.09-1.69-2A3.32,3.32,0,0,1,269.22,4.19Zm-.06,3.66q0-1.28-.91-1.34a1.7,1.7,0,0,0-1.06.47V7a1.62,1.62,0,0,0-.06.5q0,1.66,1.13,1.75Q269.12,9.19,269.15,7.85Z"/><path d="M270.93,9.35l-.09-.06a3.08,3.08,0,0,0,2.09-2.47,1.66,1.66,0,0,1-1.16.47,1.44,1.44,0,0,1-1.41-1.47,1.63,1.63,0,0,1,1.56-1.62q1.59.13,1.69,2.06A3.22,3.22,0,0,1,270.93,9.35Zm0-3.63Q271,7,271.9,7.1A1.78,1.78,0,0,0,273,6.6a2,2,0,0,0,0-.5q0-1.69-1.09-1.75Q271,4.41,271,5.73Z"/><path d="M275,8.63a.39.39,0,0,1,.41.38c0,.21-.14.31-.41.31s-.39-.1-.41-.31A.39.39,0,0,1,275,8.63Z"/><path d="M279,8.51l.13.06a1.62,1.62,0,0,1-1.44.75q-1.19,0-1.31-1.47A1.83,1.83,0,0,1,278.22,6q.81,0,.88.47c0,.13-.08.2-.25.22a.61.61,0,0,1-.41-.22.79.79,0,0,0-.53-.28q-.91.16-1,1.44Q277,9,278,9.07A1.18,1.18,0,0,0,279,8.51Z"/><path d="M279.75,7.73A1.68,1.68,0,0,1,281.5,6a1.66,1.66,0,0,1,1.69,1.69,1.58,1.58,0,0,1-1.66,1.59A1.64,1.64,0,0,1,279.75,7.73Zm.59-.25q.09,1.56,1.25,1.72a1.19,1.19,0,0,0,1-1.28q-.12-1.5-1.25-1.69Q280.43,6.35,280.34,7.48Z"/><path d="M284.84,6.82V8.66q-.06.53.53.47v.16h-1.66V9.13q.59,0,.56-.59V6.94c0-.27-.05-.4-.22-.37l-.31-.06V6.38l1-.34h.13v.66A2.72,2.72,0,0,1,286.25,6a.74.74,0,0,1,.75.66A2.85,2.85,0,0,1,288.4,6q.81,0,.81,1.19,0,.81,0,1.56c0,.23.17.34.44.34h.25v.16h-1.78V9.13h.06a.69.69,0,0,0,.41-.09q.16-.09.13-1.16V7.26q0-.87-.59-.87a1.87,1.87,0,0,0-1.06.44V8.66q0,.5.47.47v.16h-1.62V9.13q.63,0,.59-.59V7q0-.62-.56-.66A2.27,2.27,0,0,0,284.84,6.82Z"/><path d="M290,4.19l.22-.19a5.33,5.33,0,0,1,1.41,3.53,4.91,4.91,0,0,1-1.41,3.41l-.22-.19a4.73,4.73,0,0,0,1.19-3.22A5,5,0,0,0,290,4.19Z"/><path d="M297.54,2.94a1,1,0,0,1,.91.31.87.87,0,0,1,0,.19,3,3,0,0,0-.19.91,3.74,3.74,0,0,0,.53-.12,2.65,2.65,0,0,1,1-.16q.66.19.5.47a2.09,2.09,0,0,1-.47.06q-.78,0-1.53.06a5.17,5.17,0,0,0,3,1.53c.25,0,.38.08.41.13s-.06.12-.25.16a5.61,5.61,0,0,1-1.34.16,17.59,17.59,0,0,1-1.87-1.72q.12,1.63-.12,1.66t-.28-.47a.5.5,0,0,1,0-.16,9.2,9.2,0,0,0,.09-.94,5.23,5.23,0,0,1-2.5,2,2.55,2.55,0,0,1-.62.16c-.08,0,0-.09.25-.22a7.92,7.92,0,0,0,2.69-2.22q-1.19.25-1.34.25a1.09,1.09,0,0,1-.5-.22c-.06-.06,0-.1.16-.12h.09a10,10,0,0,0,1.78-.19,2.56,2.56,0,0,0-.31-1.37C297.53,3,297.52,3,297.54,2.94ZM300.2,9.1q1.16.19.63.59l-.47,0a12.91,12.91,0,0,0-4.5.25.73.73,0,0,1-.5-.25c-.06-.08,0-.14.22-.16q2.41-.19,4-.34ZM299.82,7a.26.26,0,0,1-.09.16,1.09,1.09,0,0,0-.22.41q-.31,1.19-.59,1.25-.09.06-.31-.19l-1.41.09c0,.15-.06.22-.12.22a.34.34,0,0,1-.16-.28A4.48,4.48,0,0,0,296.39,7c0-.06-.05-.1,0-.12s.11-.05.28,0h.28a14.1,14.1,0,0,0,2-.34l.16,0Q299.73,6.63,299.82,7ZM299,6.88q-.06-.12-1.66.09a2.16,2.16,0,0,1-.37.06l.09.59a.48.48,0,0,0,.19-.06,8,8,0,0,1,1.06-.19c.23,0,.33.08.31.19s-.19.14-.44.16a3.51,3.51,0,0,1-1.06.09l.13.69q.28,0,.72-.12c.42-.1.66-.09.72,0a1.75,1.75,0,0,0,.28-.78A1.32,1.32,0,0,0,299,6.88Z"/><path d="M304.2,5.19q.28-.12.72.25a.45.45,0,0,1-.09.16,1,1,0,0,0-.31.56,14.5,14.5,0,0,0-.09,1.91l.53-.25.38-.16c.15-.06.2-.07.16,0a2.11,2.11,0,0,1-.31.31,5.63,5.63,0,0,0-1,1c-.1.17-.2.24-.28.22s-.24-.24-.28-.53a.38.38,0,0,1,.09-.19A1.41,1.41,0,0,0,304,8a13.32,13.32,0,0,0,.13-2.22l-.66.28-.28.13q-.72-.16-.44-.34l.19,0A1.66,1.66,0,0,0,304.2,5.19Zm-.12-1.59q-.25-.25.59-.09t.5.72q-.16.25-.87-.41A1,1,0,0,0,304.07,3.6ZM306.89,3a.89.89,0,0,1,.72.53,1.44,1.44,0,0,1-.12.19.77.77,0,0,0-.19.19q-.28.5-.69,1.09l-.06.06a6.82,6.82,0,0,0,1.91-.41,1.21,1.21,0,0,1,.94.47.33.33,0,0,1-.06.13,1.31,1.31,0,0,0-.19.69v.47a16.23,16.23,0,0,1-.19,2.5,1.16,1.16,0,0,1-.78,1s-.08,0-.12-.12a2.16,2.16,0,0,0-.56-.69q-.22-.19.28-.09a.77.77,0,0,0,.38.06q.59-.31.59-2.25,0-1.59-.31-1.69a2.44,2.44,0,0,0-.91.09l-.56.09a1.77,1.77,0,0,1-.41-.12l-.06,0q-1.06,1.13-1.12.81a7.24,7.24,0,0,0,1.16-1.59,2.36,2.36,0,0,0,.31-1.16A.31.31,0,0,1,306.89,3Zm0,2.94a1.17,1.17,0,0,1,.75.28.49.49,0,0,1-.06.19,1.64,1.64,0,0,0-.16.59v.22q0,1-.25,1.19c-.12.13-.24,0-.34-.28l-.78.06c0,.17,0,.27-.09.31s-.12,0-.19-.06a4.15,4.15,0,0,1-.06-.66,12,12,0,0,0-.12-1.22,1.33,1.33,0,0,0-.09-.25.13.13,0,0,1,0-.12c0-.06.17,0,.44.06A1.62,1.62,0,0,0,306.92,5.91Zm0,.41c-.06,0-.2,0-.41,0a1.85,1.85,0,0,1-.5.09l0,.63a.71.71,0,0,0,.22-.06c.29-.08.47-.08.53,0s-.05.21-.59.25H306L306,8l.44-.09c.23-.06.38-.07.44,0Q307.17,6.48,306.89,6.32Z"/><path d="M312.23,9.94a1,1,0,0,1-1.09-1,1,1,0,0,1,1.09-1.06,1,1,0,0,1,1.06,1.06A1,1,0,0,1,312.23,9.94Zm0-1.94a.89.89,0,0,0-1,.91.94.94,0,1,0,1-.91Z"/><rect class="cls-1" x="1.25" y="0.74" width="337.89" height="11.34"/><rect class="cls-1" x="1.25" y="0.74" width="337.89" height="11.34"/></g></g></svg>