<svg id="图层_1" data-name="图层 1" xmlns="http://www.w3.org/2000/svg" viewBox="0 0 43.56 43.93"><title>期刊SVG</title><path d="M33.57,19a1.94,1.94,0,0,0,.53.35l4.23,3.35c.12.12.06.35-.18.71h-.71a2.89,2.89,0,0,1-.88.18,43.25,43.25,0,0,0-7.76,3.35A21.84,21.84,0,0,0,42.22,33.8c.47.12.53.41.18.88a5.11,5.11,0,0,1-.71.53Q38,37.85,37.1,39.62c-.12.47-.35.53-.71.18Q24.75,32.56,23.34,17.57V38.91q-.71,3.88-6,3.53a1.15,1.15,0,0,1-.53-.53q.7-2.82-4.59-3.88c-.35-.24-.35-.47,0-.71q7.23.88,6.35-2.47V27.8L4.12,39.26c-.47.35-.77.29-.88-.18A12.22,12.22,0,0,0,2,37C1.41,35.8,1,35,.77,34.68S.7,34,1.29,33.8l17.29-7.23v-9H4.65l-3,.35L.59,16.51c.12,0,.71.06,1.76.18H27l.18-5.82H8.88a27.65,27.65,0,0,0-3,.18L5,9.81c.94.12,1.47.18,1.59.18H27.4l.18-6H6.06a27.65,27.65,0,0,0-3,.18L2,2.93a19.23,19.23,0,0,1,2.12.18h22.4Q27.75,1.7,28.28,1a.88.88,0,0,1,1.06,0,13.58,13.58,0,0,1,3,1.76,4.35,4.35,0,0,1,.88.53q.53.71,0,1.06L32.51,5l-.35.35-.35,11.29h1.76a19.88,19.88,0,0,1,3.35-4.06q.35-.35.53,0a41.26,41.26,0,0,1,5.29,4.06c.35.47.29.77-.18.88H23.87A20.22,20.22,0,0,0,27.93,26,62.33,62.33,0,0,0,33,19Q33.22,18.81,33.57,19Zm-27.52.71q7.23.18,7.76,5.47A2.77,2.77,0,0,1,11.7,28q-2.29.53-3-1.41V25.51q-.18-4.06-2.82-5.12A.57.57,0,0,1,6.06,19.69Z"/></svg>