<svg id="图层_1" data-name="图层 1" xmlns="http://www.w3.org/2000/svg" viewBox="0 0 24.56 33.25"><defs><style>.cls-1{fill:#fff;}</style></defs><title>期刊SVG</title><path class="cls-1" d="M4.84,31.41Q4.7,32.07,3,32.47T1.11,32.2a11,11,0,0,1,0-2.53q.13-2.13.13-3.6V4.37A13.71,13.71,0,0,0,1,2.11V1.18A15.72,15.72,0,0,1,4.84,3H18q.27-.4,1.2-1.6.13-.27.67,0a15.9,15.9,0,0,1,3.46,1.73c.27.18.31.36.13.53a2.16,2.16,0,0,1-.93,1.07l.4,26q0,1.06-1.86,1.46-2.27.4-2.4-.53V29.81H4.84Zm0-27.7v7.86H18.69V3.71Zm0,8.52v8.12H18.69V12.23Zm0,8.92v8H18.69v-8Z"/></svg>