<svg xmlns="http://www.w3.org/2000/svg" xmlns:xlink="http://www.w3.org/1999/xlink" viewBox="0 0 202.39 17.83"><defs><style>.cls-1{fill:none;}.cls-2{isolation:isolate;}.cls-3{clip-path:url(#clip-path);}.cls-4{mix-blend-mode:darken;}.cls-5{clip-path:url(#clip-path-2);}.cls-6{fill:#efefef;}</style><clipPath id="clip-path"><rect class="cls-1" x="-7.86" y="-3.24" width="208.61" height="19.76"/></clipPath><clipPath id="clip-path-2"><rect class="cls-1" x="-7.52" y="-5.8" width="217.28" height="23.31"/></clipPath></defs><title>期刊SVG</title><g class="cls-2"><g id="图层_1" data-name="图层 1"><g class="cls-3"><g class="cls-4"><g class="cls-5"><polygon class="cls-6" points="1.48 1.21 1.48 16.51 200.75 16.51 163.35 1.21 10.43 1.21 1.48 1.21"/></g></g></g><path d="M5.73,8.05h9v.2h-9Zm5.78,1.76.12-.12,2.73,3.24-.16.12-.66-.74q-4.57,0-6.91.16l-.55.08,0-.2h.35a18.56,18.56,0,0,0,3.13-4l.16.12a18.49,18.49,0,0,1-3,3.87q.47,0,4.26-.16l2.46-.08ZM6.59,5.2h7.23v.2H6.59Z"/><path d="M20.53,4.22h.2V5.55h4.41v.2H20.73V7.15h3.75v5q0,1.05-1.25,1H22v-.2h1.21q1.13.08,1.05-.82V7.35H17v5.82h-.2v-6h3.71V5.75H16.08v-.2h4.45ZM18,9.46h3c.13-.16.17-.21.12-.16q.94-1.09,1.21-1.48l.16.12L21.28,9.46h1.91v.16h-2.5V11H23.5v.23H20.69v1.84h-.2V11.22H17.72V11h2.77V9.62H18Zm.7-1.52.12-.12L19.95,9l-.12.16Z"/><path d="M26.43,8.52a29.52,29.52,0,0,0,7.15-2.3l.08.16a25.9,25.9,0,0,1-5.23,1.91h6v5h-.2v-.7H28.15v.74H28V8.4a12.33,12.33,0,0,1-1.48.31Zm.23-1.64a15.08,15.08,0,0,0,2.66-1.76l.12.16A21,21,0,0,1,26.74,7Zm1.48,1.6V9.62h6.09V8.48Zm0,1.33V11h6.09V9.81Zm0,1.41v1.17h6.09V11.22Zm2.73-7h.2V6.72h-.2Zm2,1L33,5.08l2.58,1.52-.12.16Z"/><path d="M39.48,5.32,37.33,8.09h2v.2a7.93,7.93,0,0,1-.86,3,5.49,5.49,0,0,0,4.1,1.37H46v.2H42.52a5.67,5.67,0,0,1-4.18-1.41,9.23,9.23,0,0,1-1.41,1.88l-.12-.12a8.94,8.94,0,0,0,1.37-1.87,5.15,5.15,0,0,1-1.13-2.27l.2,0a5.36,5.36,0,0,0,1.05,2.11,9.52,9.52,0,0,0,.82-2.85h-2v-.2l2.15-2.77H37v-.2h2.46Zm.27,1.48h2.66V5.59H40.22V5.4h2.19V4.22h.2V5.4h2.46V6.8h.86V7h-.86V8.37H42.6V9.54h2.7v.2H42.6v1.21h3.13v.2H42.6v1.13h-.2V11.14H39.63v-.2h2.77V9.73H40v-.2h2.38V8.37H40.22V8.21h2.19V7H39.75Zm5.12-1.21H42.6V6.8h2.27ZM42.6,8.21h2.27V7H42.6Z"/><path d="M47.21,7.74v-.2H48.7v4.88l1.41-1.37.12.16-1.48,1.45a2.62,2.62,0,0,1-.23.27l-.16-.08a1.54,1.54,0,0,0,.16-.31V7.74Zm.59-3.09.12-.12,1.52,1.64-.16.12Zm7.54,3.87v.2a6,6,0,0,1-2.11,2.89,14.78,14.78,0,0,0,3.09,1.52l0,.2a15,15,0,0,1-3.2-1.6,17.26,17.26,0,0,1-3.24,1.64l-.08-.2a14.3,14.3,0,0,0,3.16-1.56A5.73,5.73,0,0,1,51,8.72h-.82v-.2ZM51.43,4.93h3.44V6.8q-.08.63.74.59h.66v.2h-.66q-1,0-.94-.78V5.12h-3V6a2.12,2.12,0,0,1-1.25,2l-.12-.16A1.89,1.89,0,0,0,51.43,6ZM51.2,8.72a5.41,5.41,0,0,0,1.88,2.77,5.89,5.89,0,0,0,2.07-2.77Z"/><path d="M58.34,5.44H66v.2H62.29v6.72h4.34v.12H57.72v-.12h4.38V5.63H58.34Z"/><path d="M68.26,5.24q1.48-.08,2.93-.27l0,.2L71,5.2a9.69,9.69,0,0,0-1.13.12v2h1.45v.2H69.83v5.82h-.2V8.17a11.06,11.06,0,0,1-1.48,3.16L68,11.26a12.16,12.16,0,0,0,1.64-3.71H68.07v-.2h1.56v-2l-1.33.12Zm1.56,3.55L70,8.68l1.25,1.45-.16.12Zm1.25,3.79h3V10.87H71.94v-.2h2.19V8.91H71.59V8.76h5.23v.16h-2.5v1.76h2.15v.2H74.32v1.72h2.81v.2H71.08ZM72,5h4.38V7.43H72Zm4.18.2h-4V7.23h4Z"/><path d="M78.54,6.41h1.8V4.3h.2V6.41h1.56v.2H80.53v6.72h-.2V7.15a12.37,12.37,0,0,1-1.8,3.55l-.16-.12a12.25,12.25,0,0,0,1.91-4H78.54Zm2.15,1.72L80.8,8l1.45,1.37-.16.12ZM86,4.38h.16V6.45h1.45v.2H86.12V11.8q.12,1.37-1.29,1.21H83.5v-.2l.74,0h.59Q86.08,13,86,11.8V6.65h-.12a13.34,13.34,0,0,1-4.1,5.27l-.12-.16a13.32,13.32,0,0,0,4-5.12H82.48v-.2H86Z"/><path d="M88.77,7.94h1.84V4.3h.2V7.94h1.84v.2H90.8v5.2h-.2V8.72a9,9,0,0,1-1.72,3l-.16-.12a8.2,8.2,0,0,0,1.84-3.44h-1.8ZM89,5.44l.16-.08q.31.59.78,1.68l-.16.08Q89.47,6.53,89,5.44Zm2,3.75L91.15,9l1.37,1.37-.12.16ZM91.43,7l.86-1.64.16.08a14.73,14.73,0,0,1-.86,1.68Zm1.37,3.71,3.52-.55V4.3h.2v5.86l1.37-.23,0,.2-1.41.23v3h-.2v-3l-3.52.55Zm.66-3,.12-.16L95.26,9l-.12.16Zm.27-2.3.12-.12L95.49,6.8l-.12.12Z"/><path d="M105.1,7.58h2.11v.2a8.49,8.49,0,0,1-2.34,3.28,13.15,13.15,0,0,0,3.4,2l-.08.2a12.7,12.7,0,0,1-3.44-2,14.59,14.59,0,0,1-3.83,2.19l-.08-.2a13.51,13.51,0,0,0,3.75-2.11,9,9,0,0,1-2.77-4.45l0,.74a8.91,8.91,0,0,1-2.5,5.9l-.16-.12a8.8,8.8,0,0,0,2.46-5.82q.12-1.21.12-2h-2v-.2h6.64v.2Zm-3.24-1.64a9.05,9.05,0,0,0,2.89,5A8.68,8.68,0,0,0,107,7.78H104.9v-.2l1.25-2.3H101.9Z"/><path d="M109.55,7.74v-.2H111v4.88l1.41-1.37.12.16-1.48,1.45a2.62,2.62,0,0,1-.23.27l-.16-.08a1.54,1.54,0,0,0,.16-.31V7.74Zm.59-3.09.12-.12,1.52,1.64-.16.12Zm7.54,3.87v.2a6,6,0,0,1-2.11,2.89,14.78,14.78,0,0,0,3.09,1.52l0,.2a15,15,0,0,1-3.2-1.6,17.26,17.26,0,0,1-3.24,1.64l-.08-.2a14.3,14.3,0,0,0,3.16-1.56,5.73,5.73,0,0,1-1.91-2.89h-.82v-.2Zm-3.91-3.59h3.44V6.8q-.08.63.74.59h.66v.2h-.66q-1,0-.94-.78V5.12h-3V6a2.12,2.12,0,0,1-1.25,2l-.12-.16A1.89,1.89,0,0,0,113.77,6Zm-.23,3.79a5.41,5.41,0,0,0,1.88,2.77,5.89,5.89,0,0,0,2.07-2.77Z"/><path d="M120.25,7.12A11,11,0,0,0,123,4.26l.16.08a4.92,4.92,0,0,1-.62.94h5.27v.2a10.18,10.18,0,0,1-3,2,15.4,15.4,0,0,0,4.3,1l0,.2a16,16,0,0,1-4.49-1.05A20.09,20.09,0,0,1,120,8.79l0-.16a22.79,22.79,0,0,0,4.38-1.13A7,7,0,0,1,122,5.87a10.11,10.11,0,0,1-1.6,1.41Zm1,2h6.45v4.18h-.16v-.55h-6.09v.55h-.2Zm.2.2V10.9h2.93V9.34Zm0,1.76v1.48h2.93V11.1Zm.86-5.63-.23.27a8.08,8.08,0,0,0,2.46,1.64,9.55,9.55,0,0,0,3-1.91Zm5.23,3.87h-3V10.9h3Zm-3,1.76v1.48h3V11.1Z"/><path d="M130.29,9.3a17.81,17.81,0,0,0,2.3-5l.2,0A15.63,15.63,0,0,1,132,6.53v6.76h-.2V7a13.23,13.23,0,0,1-1.37,2.46Zm2.38-.66a10.42,10.42,0,0,0,3.52-4.34l.2.08-.12.23a.43.43,0,0,1-.08.16,9.62,9.62,0,0,0,3.32,3.79l-.12.16A9.39,9.39,0,0,1,136.11,5a10.22,10.22,0,0,1-3.36,3.79Zm1.91-.51h.2V9.54a4.43,4.43,0,0,1-1.56,3.83l-.16-.16a4.06,4.06,0,0,0,1.52-3.67Zm2.77,0h.2v5.16h-.2Z"/><path d="M140.88,6.41h1.45V4.26h.2V6.41h1.33v.2h-1.33v6.72h-.2V7.27a12.52,12.52,0,0,1-1.45,3.44l-.16-.12a13.82,13.82,0,0,0,1.56-4h-1.41Zm1.76,1.37.16-.16,1.09,1.17-.12.12ZM144,7.23a10.06,10.06,0,0,0,2.11-3l.16.08a4.52,4.52,0,0,1-.55,1.05h3.44v.2A6.71,6.71,0,0,1,147,7.9,7.66,7.66,0,0,0,149.86,9l0,.2A8.13,8.13,0,0,1,146.89,8a12.69,12.69,0,0,1-3.09,1.37l-.08-.2a10.6,10.6,0,0,0,3-1.29,5.87,5.87,0,0,1-1.52-1.72,12.1,12.1,0,0,1-1.05,1.21Zm.78,2.54H149v3.59h-.2v-.78H145v.78h-.2Zm.2.2v2.46h3.79V10Zm.35-4a5.81,5.81,0,0,0,1.56,1.8,8.25,8.25,0,0,0,2-2.19H145.6a.9.9,0,0,0-.12.2A.83.83,0,0,0,145.33,6Z"/><path d="M151.07,9.34a20.18,20.18,0,0,0,2.15-5.12l.16,0a12.24,12.24,0,0,1-.82,2.5v6.56h-.16V7.23a15,15,0,0,1-1.17,2.23Zm2.62-3.59h3.48a5.42,5.42,0,0,1-.23-.62q-.23-.62-.31-.78l.2-.08a8.54,8.54,0,0,0,.43,1.09c.08.18.13.31.16.39h2.85V5.9h-6.56Zm.63,1.56h5.31v.2h-5.31Zm0,1.48h5.31V9h-5.31Zm0,1.45h5.23v3.13h-.23v-.78h-4.8v.78h-.2Zm.2.2v2h4.8v-2Z"/><path d="M161.5,12.58a12.61,12.61,0,0,0,1.21-2l.2.08a13.16,13.16,0,0,1-1.25,2.07Zm1.25-2.77V5.44h2.3q.19-.31.63-1.17l.2.08-.16.31q-.31.55-.47.78h4.18V9.81Zm.2-4.18V6.88h6.29V5.63Zm0,1.45V8.25h6.29V7.08Zm0,2.54h6.29V8.44h-6.29Zm1,.86h.2V12q0,.82.94.82h2q1,0,1.09-.62a3,3,0,0,0,.12-.86h.2a5.74,5.74,0,0,1-.08.66,1.05,1.05,0,0,0,0,.23q-.12.78-1.29.78h-2Q164,13,164,12Zm1.56-.12.16-.16,1.17,1.33-.16.12Zm3.55.27.16-.12q.78,1,1.41,1.91l-.16.08Q169.63,11.33,169.08,10.63Z"/><rect class="cls-1" x="1.9" y="-3.24" width="208.61" height="19.76"/></g></g></svg>