<svg xmlns="http://www.w3.org/2000/svg" xmlns:xlink="http://www.w3.org/1999/xlink" viewBox="0 0 202.39 17.83"><defs><style>.cls-1{fill:none;}.cls-2{isolation:isolate;}.cls-3{clip-path:url(#clip-path);}.cls-4{mix-blend-mode:darken;}.cls-5{clip-path:url(#clip-path-2);}.cls-6{fill:#efefef;}</style><clipPath id="clip-path"><rect class="cls-1" x="1.9" y="-3.24" width="208.61" height="19.76"/></clipPath><clipPath id="clip-path-2"><rect class="cls-1" x="-7.1" y="-5.8" width="217.28" height="23.31"/></clipPath></defs><title>期刊SVG</title><g class="cls-2"><g id="图层_1" data-name="图层 1"><g class="cls-3"><g class="cls-4"><g class="cls-5"><polygon class="cls-6" points="201.18 1.21 201.18 16.51 1.9 16.51 39.3 1.21 192.22 1.21 201.18 1.21"/></g></g></g><path d="M33.3,8.05h9v.2h-9Zm5.78,1.76.12-.12,2.73,3.24-.16.12-.66-.74q-4.57,0-6.91.16l-.55.08,0-.2H34a18.56,18.56,0,0,0,3.13-4l.16.12a18.49,18.49,0,0,1-3,3.87q.47,0,4.26-.16L41,12.12ZM34.16,5.2h7.23v.2H34.16Z"/><path d="M48.11,4.22h.2V5.55h4.41v.2H48.3V7.15h3.75v5q0,1.05-1.25,1H49.59v-.2H50.8q1.13.08,1.05-.82V7.35H44.59v5.82h-.2v-6h3.71V5.75H43.66v-.2h4.45ZM45.57,9.46h3c.13-.16.17-.21.12-.16q.94-1.09,1.21-1.48l.16.12L48.85,9.46h1.91v.16h-2.5V11h2.81v.23H48.26v1.84h-.2V11.22H45.3V11h2.77V9.62h-2.5Zm.7-1.52.12-.12L47.52,9l-.12.16Z"/><path d="M54,8.52a29.52,29.52,0,0,0,7.15-2.3l.08.16A25.9,25.9,0,0,1,56,8.29h6v5h-.2v-.7H55.72v.74h-.2V8.4A12.33,12.33,0,0,1,54,8.72Zm.23-1.64A15.08,15.08,0,0,0,56.9,5.12l.12.16A21,21,0,0,1,54.32,7Zm1.48,1.6V9.62h6.09V8.48Zm0,1.33V11h6.09V9.81Zm0,1.41v1.17h6.09V11.22Zm2.73-7h.2V6.72h-.2Zm2,1,.12-.16,2.58,1.52L63,6.76Z"/><path d="M67.05,5.32,64.9,8.09h2v.2a7.93,7.93,0,0,1-.86,3,5.49,5.49,0,0,0,4.1,1.37h3.44v.2H70.1a5.67,5.67,0,0,1-4.18-1.41,9.23,9.23,0,0,1-1.41,1.88l-.12-.12a8.94,8.94,0,0,0,1.37-1.87,5.15,5.15,0,0,1-1.13-2.27l.2,0a5.36,5.36,0,0,0,1.05,2.11,9.52,9.52,0,0,0,.82-2.85h-2v-.2l2.15-2.77H64.59v-.2h2.46Zm.27,1.48H70V5.59H67.79V5.4H70V4.22h.2V5.4h2.46V6.8h.86V7h-.86V8.37H70.18V9.54h2.7v.2h-2.7v1.21H73.3v.2H70.18v1.13H70V11.14H67.21v-.2H70V9.73H67.6v-.2H70V8.37H67.79V8.21H70V7H67.33Zm5.12-1.21H70.18V6.8h2.27ZM70.18,8.21h2.27V7H70.18Z"/><path d="M74.79,7.74v-.2h1.48v4.88l1.41-1.37.12.16-1.48,1.45a2.62,2.62,0,0,1-.23.27l-.16-.08a1.54,1.54,0,0,0,.16-.31V7.74Zm.59-3.09.12-.12L77,6.18l-.16.12Zm7.54,3.87v.2a6,6,0,0,1-2.11,2.89,14.78,14.78,0,0,0,3.09,1.52l0,.2a15,15,0,0,1-3.2-1.6,17.26,17.26,0,0,1-3.24,1.64l-.08-.2a14.3,14.3,0,0,0,3.16-1.56,5.73,5.73,0,0,1-1.91-2.89h-.82v-.2ZM79,4.93h3.44V6.8q-.08.63.74.59h.66v.2h-.66q-1,0-.94-.78V5.12h-3V6a2.12,2.12,0,0,1-1.25,2l-.12-.16A1.89,1.89,0,0,0,79,6Zm-.23,3.79a5.41,5.41,0,0,0,1.88,2.77,5.89,5.89,0,0,0,2.07-2.77Z"/><path d="M85.92,5.44h7.66v.2H89.86v6.72H94.2v.12H85.29v-.12h4.38V5.63H85.92Z"/><path d="M95.84,5.24q1.48-.08,2.93-.27l0,.2-.27,0a9.69,9.69,0,0,0-1.13.12v2h1.45v.2H97.4v5.82h-.2V8.17a11.06,11.06,0,0,1-1.48,3.16l-.16-.08a12.16,12.16,0,0,0,1.64-3.71H95.64v-.2h1.56v-2l-1.33.12ZM97.4,8.79l.16-.12,1.25,1.45-.16.12Zm1.25,3.79h3V10.87H99.51v-.2h2.19V8.91H99.16V8.76h5.23v.16h-2.5v1.76H104v.2h-2.15v1.72h2.81v.2H98.65ZM99.59,5H104V7.43H99.59Zm4.18.2h-4V7.23h4Z"/><path d="M106.11,6.41h1.8V4.3h.2V6.41h1.56v.2H108.1v6.72h-.2V7.15a12.37,12.37,0,0,1-1.8,3.55l-.16-.12a12.25,12.25,0,0,0,1.91-4h-1.76Zm2.15,1.72.12-.12,1.45,1.37-.16.12Zm5.27-3.75h.16V6.45h1.45v.2h-1.45V11.8q.12,1.37-1.29,1.21h-1.33v-.2l.74,0h.59q1.25.16,1.13-1.05V6.65h-.12a13.34,13.34,0,0,1-4.1,5.27l-.12-.16a13.32,13.32,0,0,0,4-5.12h-3.16v-.2h3.48Z"/><path d="M116.35,7.94h1.84V4.3h.2V7.94h1.84v.2h-1.84v5.2h-.2V8.72a9,9,0,0,1-1.72,3l-.16-.12a8.2,8.2,0,0,0,1.84-3.44h-1.8Zm.23-2.5.16-.08q.31.59.78,1.68l-.16.08Q117,6.53,116.58,5.44Zm2,3.75.12-.16,1.37,1.37-.12.16ZM119,7l.86-1.64.16.08a14.73,14.73,0,0,1-.86,1.68Zm1.37,3.71,3.52-.55V4.3h.2v5.86l1.37-.23,0,.2-1.41.23v3h-.2v-3l-3.52.55Zm.66-3,.12-.16L122.83,9l-.12.16Zm.27-2.3.12-.12,1.64,1.48-.12.12Z"/><path d="M132.67,7.58h2.11v.2a8.49,8.49,0,0,1-2.34,3.28,13.15,13.15,0,0,0,3.4,2l-.08.2a12.7,12.7,0,0,1-3.44-2,14.59,14.59,0,0,1-3.83,2.19l-.08-.2a13.51,13.51,0,0,0,3.75-2.11,9,9,0,0,1-2.77-4.45l0,.74a8.91,8.91,0,0,1-2.5,5.9l-.16-.12a8.8,8.8,0,0,0,2.46-5.82q.12-1.21.12-2h-2v-.2h6.64v.2Zm-3.24-1.64a9.05,9.05,0,0,0,2.89,5,8.68,8.68,0,0,0,2.23-3.16h-2.07v-.2l1.25-2.3h-4.26Z"/><path d="M137.13,7.74v-.2h1.48v4.88L140,11.06l.12.16-1.48,1.45a2.62,2.62,0,0,1-.23.27l-.16-.08a1.54,1.54,0,0,0,.16-.31V7.74Zm.59-3.09.12-.12,1.52,1.64-.16.12Zm7.54,3.87v.2a6,6,0,0,1-2.11,2.89,14.78,14.78,0,0,0,3.09,1.52l0,.2a15,15,0,0,1-3.2-1.6,17.26,17.26,0,0,1-3.24,1.64l-.08-.2a14.3,14.3,0,0,0,3.16-1.56,5.73,5.73,0,0,1-1.91-2.89h-.82v-.2Zm-3.91-3.59h3.44V6.8q-.08.63.74.59h.66v.2h-.66q-1,0-.94-.78V5.12h-3V6a2.12,2.12,0,0,1-1.25,2l-.12-.16A1.89,1.89,0,0,0,141.34,6Zm-.23,3.79A5.41,5.41,0,0,0,143,11.49a5.89,5.89,0,0,0,2.07-2.77Z"/><path d="M147.83,7.12a11,11,0,0,0,2.73-2.85l.16.08a4.92,4.92,0,0,1-.62.94h5.27v.2a10.18,10.18,0,0,1-3,2,15.4,15.4,0,0,0,4.3,1l0,.2a16,16,0,0,1-4.49-1.05,20.09,20.09,0,0,1-4.57,1.17l0-.16a22.79,22.79,0,0,0,4.38-1.13,7,7,0,0,1-2.34-1.64,10.11,10.11,0,0,1-1.6,1.41Zm1,2h6.45v4.18h-.16v-.55H149v.55h-.2Zm.2.2V10.9H152V9.34Zm0,1.76v1.48H152V11.1Zm.86-5.63-.23.27a8.08,8.08,0,0,0,2.46,1.64,9.55,9.55,0,0,0,3-1.91Zm5.23,3.87h-3V10.9h3Zm-3,1.76v1.48h3V11.1Z"/><path d="M157.87,9.3a17.81,17.81,0,0,0,2.3-5l.2,0a15.63,15.63,0,0,1-.78,2.19v6.76h-.2V7A13.23,13.23,0,0,1,158,9.42Zm2.38-.66a10.42,10.42,0,0,0,3.52-4.34l.2.08-.12.23a.43.43,0,0,1-.08.16,9.62,9.62,0,0,0,3.32,3.79l-.12.16A9.39,9.39,0,0,1,163.69,5a10.22,10.22,0,0,1-3.36,3.79Zm1.91-.51h.2V9.54a4.43,4.43,0,0,1-1.56,3.83l-.16-.16a4.06,4.06,0,0,0,1.52-3.67Zm2.77,0h.2v5.16h-.2Z"/><path d="M168.45,6.41h1.45V4.26h.2V6.41h1.33v.2h-1.33v6.72h-.2V7.27a12.52,12.52,0,0,1-1.45,3.44l-.16-.12a13.82,13.82,0,0,0,1.56-4h-1.41Zm1.76,1.37.16-.16,1.09,1.17-.12.12Zm1.37-.55a10.06,10.06,0,0,0,2.11-3l.16.08a4.52,4.52,0,0,1-.55,1.05h3.44v.2a6.71,6.71,0,0,1-2.11,2.3A7.66,7.66,0,0,0,177.44,9l0,.2A8.13,8.13,0,0,1,174.47,8a12.69,12.69,0,0,1-3.09,1.37l-.08-.2a10.6,10.6,0,0,0,3-1.29,5.87,5.87,0,0,1-1.52-1.72,12.1,12.1,0,0,1-1.05,1.21Zm.78,2.54h4.18v3.59h-.2v-.78h-3.79v.78h-.2Zm.2.2v2.46h3.79V10Zm.35-4a5.81,5.81,0,0,0,1.56,1.8,8.25,8.25,0,0,0,2-2.19h-3.32a.9.9,0,0,0-.12.2A.83.83,0,0,0,172.91,6Z"/><path d="M178.65,9.34a20.18,20.18,0,0,0,2.15-5.12l.16,0a12.24,12.24,0,0,1-.82,2.5v6.56H180V7.23a15,15,0,0,1-1.17,2.23Zm2.62-3.59h3.48a5.42,5.42,0,0,1-.23-.62q-.23-.62-.31-.78l.2-.08a8.54,8.54,0,0,0,.43,1.09c.08.18.13.31.16.39h2.85V5.9h-6.56Zm.63,1.56h5.31v.2h-5.31Zm0,1.48h5.31V9h-5.31Zm0,1.45h5.23v3.13h-.23v-.78h-4.8v.78h-.2Zm.2.2v2h4.8v-2Z"/><path d="M189.08,12.58a12.61,12.61,0,0,0,1.21-2l.2.08a13.16,13.16,0,0,1-1.25,2.07Zm1.25-2.77V5.44h2.3q.19-.31.63-1.17l.2.08-.16.31q-.31.55-.47.78H197V9.81Zm.2-4.18V6.88h6.29V5.63Zm0,1.45V8.25h6.29V7.08Zm0,2.54h6.29V8.44h-6.29Zm1,.86h.2V12q0,.82.94.82h2q1,0,1.09-.62a3,3,0,0,0,.12-.86h.2A5.74,5.74,0,0,1,196,12a1.05,1.05,0,0,0,0,.23q-.12.78-1.29.78h-2q-1.13,0-1.13-1Zm1.56-.12.16-.16,1.17,1.33-.16.12Zm3.55.27.16-.12q.78,1,1.41,1.91l-.16.08Q197.2,11.33,196.65,10.63Z"/><rect class="cls-1" x="1.9" y="-3.24" width="208.61" height="19.76"/></g></g></svg>