<svg id="图层_1" data-name="图层 1" xmlns="http://www.w3.org/2000/svg" viewBox="0 0 69.91 20.61"><defs><style>.cls-1{fill:gray;}</style></defs><title>期刊SVG</title><path d="M4.44,4.53a5.16,5.16,0,0,1,.75,2.91Q5.19,8.84,3.46,9A8.29,8.29,0,0,0,2.9,7.81V11H1.54V.83h4A19.44,19.44,0,0,1,4.44,4.53ZM3.79,2H2.9V7.58q1.59,0,.14-2.86c0-.12.09-.33.19-.61A8.65,8.65,0,0,0,3.79,2ZM4,9.78A6,6,0,0,0,5.66,7.53a7.42,7.42,0,0,1,1.41.66,13.3,13.3,0,0,1-1.69,2.25A6.06,6.06,0,0,0,4,9.78Zm.56-5.44A6.45,6.45,0,0,0,7.07.27L9,.45a.48.48,0,0,1-.09.19.14.14,0,0,0,0,.09,6.77,6.77,0,0,0,3.38,3.14,8.23,8.23,0,0,0-1,1.5A1.85,1.85,0,0,0,11,5.14l-.84-.66V5H8.85v.94h2.39V7.16H8.9v2.91q.38,1.22-2.2,1.08a3.69,3.69,0,0,0-.33-1.31q1.17.19,1-.8V7.16H5.48V5.94H7.35V5h-1V4.58a8.42,8.42,0,0,1-.75.75Q6,5,5.52,5.38A5.16,5.16,0,0,0,4.59,4.34Zm2.48-.52h2.3A10.5,10.5,0,0,1,8.15,2.14a4,4,0,0,0-.23.42A7.31,7.31,0,0,1,7.07,3.83Zm3.52,6.61Q9.93,9.17,9.23,8.09l1.17-.56a21.35,21.35,0,0,1,1.45,2.3A9.56,9.56,0,0,0,10.59,10.44Z"/><path d="M15.26,1.06A20.08,20.08,0,0,0,18.87.41l.38-.09a4.24,4.24,0,0,1,.89,1.31q0,.09-.52.14L18.45,2V3.5H20V4.72h-1.5V5.8A2.79,2.79,0,0,1,19,5.38a10.22,10.22,0,0,1,1.17,1.36,4.06,4.06,0,0,1-.84.89l-.42-.47a4.68,4.68,0,0,1-.42-.47v4.45H17v-4A13.47,13.47,0,0,1,16,8.8l-.33-.47a5.48,5.48,0,0,0-.47-.75,8,8,0,0,0,1.59-2.86H15.36V3.5H17V2.14q-.23,0-.7.09a2.56,2.56,0,0,1-.56.09q-.09-.23-.33-.75Zm5,1.69h.94l-.66-1.31a3.84,3.84,0,0,1-.28-.56A10.65,10.65,0,0,1,21.59.31q.19.28,1,2L22,2.56l-.47.19h1.31q.42-.94.8-2,.14-.42.19-.42a4.55,4.55,0,0,1,1.59.56q0,.14-.19.47a11.36,11.36,0,0,0-.89,1.36h1v4H24.22V9.55q0,.23.19.28h.23q.33,0,.38-.94.75.28,1.45.47-.14,2-1.36,1.73H23.84q-1.08,0-1.08-.8V6.78h-.37a5.68,5.68,0,0,1-.52,2.67A5.67,5.67,0,0,1,20,11.23a10.61,10.61,0,0,0-1-1A3.3,3.3,0,0,0,21,6.78h-.75Zm1.45,2.81h2.16V4H21.69Z"/><path d="M32.13,2H29.65V.83H40.19V2H37.71a1.51,1.51,0,0,0-.09.38,2.93,2.93,0,0,1-.19.61h2.39V8.7h-1.5V4.16H35.55V8.75H34.19V5a14.25,14.25,0,0,1-.37,1.45,1.26,1.26,0,0,1-.28,0,4.52,4.52,0,0,0-.94-.14l.28-.7h-.56V9.83Q32.65,11,30.12,11a3.77,3.77,0,0,0-.42-1.41q1.41.19,1.22-.42V5.52H29.32V4.3h1.55q-.7-.7-1.12-1.17a5.33,5.33,0,0,0,.7-.56,2,2,0,0,0,.28-.19,2.14,2.14,0,0,1,.56.61.53.53,0,0,1,.19.19A7.46,7.46,0,0,0,32.13,2Zm4,0H34v-1a23.46,23.46,0,0,1-1.55,3l.19.23h1.59V3h1.88A6,6,0,0,0,36.12,2Zm0,5.06a19.65,19.65,0,0,0,.09-2.53h.56a7.31,7.31,0,0,1,.89,0c.12,0,.16.09.09.28a.77.77,0,0,0,0,.23v.19q-.1.7-.14,1.22c0,.16-.06.38-.09.66q-.1.8-.14,1a28.58,28.58,0,0,1,2.91,1.69l-1,1.31,0,0a8.56,8.56,0,0,0-2.39-1.73A7.56,7.56,0,0,1,34,11.33a7.82,7.82,0,0,0-1-1.22Q36.16,9.41,36.16,7.11Z"/><path d="M45.53.17l1.64.23q-.23.37-.47.7h2.77v.75A9,9,0,0,0,50.12.22L51.76.5l0,.09q-.14.23-.28.52H54.2V2.23H52.7A1.78,1.78,0,0,1,53,2.7a.55.55,0,0,0,.09.14Q52.7,3,52,3.27h.52V7.86H51.44v.47h2.86V9.45H51.44v1.64h-1.5V9.45h-2q-.47,1.45-3.14,1.78a4.28,4.28,0,0,0-.7-1.08q2,0,2.3-.7H43.65V8.33h3V7.86H45.44V3.27h4.08A2.17,2.17,0,0,0,49,3l-.23-.09s0-.08.09-.14a2,2,0,0,0,.38-.52H47.92q.14.28.28.61-.7.14-1.36.33-.09-.33-.28-.94H46a4.19,4.19,0,0,0-.52.75q-.47.75-.61.94-.28-.14-.89-.37l-.33-.19A11.09,11.09,0,0,0,45.53.17Zm1.36,4v.38H51V4.2Zm0,1.55H51V5.38H46.89Zm0,.8v.38H51V6.55Zm3,1.78V7.86H48.11v.47Zm.89-6.09a6.93,6.93,0,0,1-.56.8,1,1,0,0,0-.19.23h1.69a6.07,6.07,0,0,0-.33-.8,1.82,1.82,0,0,0-.09-.23Z"/><path d="M60.8,5.14A7.56,7.56,0,0,0,63.71.27a6.18,6.18,0,0,1,1.83.28.15.15,0,0,1,0,.19.27.27,0,0,0-.09.19,5.78,5.78,0,0,0,3.42,3.56v0a3.19,3.19,0,0,0-1,1.36h0a1.85,1.85,0,0,0-.33-.23,3.59,3.59,0,0,1-.66-.47v6H65.3V4.72h.89a8.68,8.68,0,0,1-1.55-2.25,15.75,15.75,0,0,1-1.45,2.2h.75q.38,0,.23.38a1.28,1.28,0,0,0,0,.28V6.45a7.76,7.76,0,0,1-.37,2.81,5.89,5.89,0,0,1-1.64,1.83,4.51,4.51,0,0,0-1.22-1A3.19,3.19,0,0,0,62.68,7V5.19a4.33,4.33,0,0,1-.94.94h0a1.9,1.9,0,0,0-.89-.75v5.72H59.4V5.84a2.12,2.12,0,0,1-.19.28,7.48,7.48,0,0,1-.56.75h0a2.92,2.92,0,0,0-1-1v0A12.16,12.16,0,0,0,60.05.41a5.11,5.11,0,0,1,1.64.42.15.15,0,0,1,.09.14V1l-.19.42q-.42,1-.8,1.83Z"/><path class="cls-1" d="M4.56,16H4.43a1.44,1.44,0,0,0-1.43-1,1.69,1.69,0,0,0-1.72,1.82,1.88,1.88,0,0,0,1.77,2,1.7,1.7,0,0,0,1.55-.94h.12a5.6,5.6,0,0,1-.39.91,1.92,1.92,0,0,0-.57,0,6,6,0,0,1-.86.07Q.82,18.86.69,17A2.11,2.11,0,0,1,3,14.9a3.31,3.31,0,0,1,1.08.2.75.75,0,0,0,.25.07c.06,0,.11,0,.12,0h.1Z"/><path class="cls-1" d="M8.92,17H6.43v1.21q0,.59.52.54H7v.12H5.4v-.12h0q.52,0,.49-.44V15.56q0-.44-.44-.44V15H7v.12q-.62-.07-.54.59v1.11H8.92V15.56c0-.31-.15-.46-.49-.44H8.28V15H9.9v.12q-.52,0-.47.52v2.61q0,.59.52.54h0v.12H8.2v-.12h.22c.34,0,.51-.14.49-.47Z"/><path class="cls-1" d="M13.84,15h1.5v.12q-.62,0-.59.57v1.72q-.07,1.5-1.85,1.55t-1.85-1.53V15.59q0-.52-.52-.47V15h1.6v.12h0c-.34,0-.51.13-.49.44v1.75A1.27,1.27,0,0,0,13,18.69a1.28,1.28,0,0,0,1.45-1.38V15.86q.1-.81-.64-.74Z"/><path class="cls-1" d="M15.91,17.95H16a1.08,1.08,0,0,0,1.06.89q.81,0,.86-.74,0-.44-.94-1t-1.08-1.23Q16,15,17.06,14.9a1.6,1.6,0,0,1,.62.12.78.78,0,0,0,.22,0A.21.21,0,0,0,18,15h.1l.1.81h-.1a1.12,1.12,0,0,0-1-.74q-.69,0-.71.57t.94,1q1.11.71,1.11,1.3-.07,1-1.3,1a3.42,3.42,0,0,1-.69-.1l-.17,0a.11.11,0,0,0-.12.07H16Z"/><path class="cls-1" d="M22.65,17H20.16v1.21q0,.59.52.54h0v.12H19.13v-.12h0q.52,0,.49-.44V15.56c0-.3-.12-.44-.44-.44V15h1.5v.12q-.62-.07-.54.59v1.11h2.49V15.56q0-.47-.49-.44H22V15h1.62v.12c-.34,0-.5.16-.47.52v2.61q0,.59.52.54h0v.12h-1.8v-.12h.22q.52,0,.49-.47Z"/><path class="cls-1" d="M27.57,15h1.5v.12q-.62,0-.59.57v1.72q-.07,1.5-1.85,1.55t-1.85-1.53V15.59q0-.52-.52-.47V15h1.6v.12h0q-.52,0-.49.44v1.75a1.27,1.27,0,0,0,1.43,1.38,1.28,1.28,0,0,0,1.45-1.38V15.86q.1-.81-.64-.74Z"/><path class="cls-1" d="M31.19,18.79v.12H29.64v-.12q.52,0,.47-.52V15.56q0-.44-.47-.44V15h1.55v.12q-.59,0-.54.49v2.68Q30.6,18.84,31.19,18.79Z"/><path class="cls-1" d="M34,17.09l.91-1.53c.1-.16.12-.28.07-.34s-.18-.1-.39-.1V15H36v.12a.82.82,0,0,0-.79.49l-1.06,1.77v1q0,.47.49.44h.1v.12H33v-.12h.12q.54,0,.52-.44v-.89l-1.11-1.77q-.37-.62-.86-.57V15h1.67v.12c-.25,0-.39,0-.44.1s0,.15.1.29Z"/><path class="cls-1" d="M39.78,15h1.5v.12q-.62,0-.59.57v1.72q-.07,1.5-1.85,1.55T37,17.43V15.59q0-.52-.52-.47V15h1.6v.12h0q-.52,0-.49.44v1.75a1.44,1.44,0,0,0,2.88,0V15.86q.1-.81-.64-.74Z"/><path class="cls-1" d="M41.84,17.95H42a1.08,1.08,0,0,0,1.06.89q.81,0,.86-.74,0-.44-.94-1t-1.08-1.23Q41.94,15,43,14.9a1.61,1.61,0,0,1,.62.12.77.77,0,0,0,.22,0A.21.21,0,0,0,44,15h.1l.1.81h-.1a1.12,1.12,0,0,0-1-.74q-.69,0-.71.57t.94,1q1.11.71,1.11,1.3-.07,1-1.3,1a3.4,3.4,0,0,1-.69-.1l-.17,0a.11.11,0,0,0-.12.07H42Z"/><path class="cls-1" d="M48.29,15h1.5v.12q-.62,0-.59.57v1.72q-.07,1.5-1.85,1.55t-1.85-1.53V15.59q0-.52-.52-.47V15h1.6v.12h0c-.34,0-.51.13-.49.44v1.75a1.44,1.44,0,0,0,2.88,0V15.86q.1-.81-.64-.74Z"/><path class="cls-1" d="M52.74,17.16h-1.3l-.37,1a.55.55,0,0,1,0,.17.82.82,0,0,0-.07.22q0,.22.52.22h.1v.12H50.11v-.12q.47.1.66-.62L51.93,15l0-.15h.54l1.3,3.5a.49.49,0,0,0,.59.39v.12H52.6v-.12h.15q.54,0,.49-.2a.79.79,0,0,0,0-.22.07.07,0,0,1,0,0Zm-.1-.27-.57-1.45-.54,1.45Z"/><path class="cls-1" d="M59,18.91h-.15L55.6,15.54v2.71q-.07.62.64.54v.12H54.79v-.12h0q.52,0,.49-.42v-3.1a.92.92,0,0,0-.52-.15V15h1l3,3.08V15.59q.07-.49-.62-.47V15h1.48v.12c-.44,0-.64.09-.59.32Z"/><path class="cls-1" d="M61.17,15.56v2.71q-.07,1.92-1.25,2c-.36,0-.56-.12-.59-.32a.24.24,0,0,1,.22-.25.53.53,0,0,1,.27.12.59.59,0,0,0,.32.15q.49,0,.49-.91v-3.3q.07-.79-.49-.69h-.07V15h1.6v.12Q61.12,15.12,61.17,15.56Z"/><path class="cls-1" d="M63.91,18.79v.12H62.36v-.12q.52,0,.47-.52V15.56q0-.44-.47-.44V15h1.55v.12q-.59,0-.54.49v2.68Q63.32,18.84,63.91,18.79Z"/><path class="cls-1" d="M67.06,17.16h-1.3l-.37,1a.55.55,0,0,1,0,.17.82.82,0,0,0-.07.22q0,.22.52.22h.1v.12H64.43v-.12q.47.1.66-.62L66.25,15l0-.15h.54l1.3,3.5a.49.49,0,0,0,.59.39v.12H66.91v-.12h.15q.54,0,.49-.2a.79.79,0,0,0,0-.22.07.07,0,0,1,0,0Zm-.1-.27-.57-1.45-.54,1.45Z"/></svg>