<svg id="图层_1" data-name="图层 1" xmlns="http://www.w3.org/2000/svg" viewBox="0 0 162.83 29.69"><title>期刊SVG</title><path d="M9.53,5q1.21,0,1.13.63-.16.16-.86.12A17.82,17.82,0,0,0,6,6q.9.47.7.66T4.77,8.49l-.27.27A14.54,14.54,0,0,0,7,8.34l1-.2q-.16-.19-.39-.55-.55-.62,0-.39a2.87,2.87,0,0,1,1.6,1.21,1.4,1.4,0,0,1,.16,1.09q-.16.35-.55-.08a3.85,3.85,0,0,1-.35-.55,5,5,0,0,0-.31-.51A15.74,15.74,0,0,0,4,9.7q-.16.16-.43-.35t0-.47Q4.26,8.77,5,7.63A3.07,3.07,0,0,0,5.86,6q-1,.16-2.38.51l-.2,0a1,1,0,0,1-.74-.16c-.23-.16-.25-.26,0-.31q2.66-.27,5.94-.9Q9.42,5,9.53,5Zm-5-1.29A11.09,11.09,0,0,0,7.31,3l.08,0q.78-.16,1,.12t-.55.55a9.12,9.12,0,0,1-2.66.43Q4.18,3.92,4.57,3.73Z"/><path d="M16,2a1.11,1.11,0,0,1,1.13.43.67.67,0,0,1,0,.16,6.32,6.32,0,0,0-.47,1.29,4.79,4.79,0,0,0,.55-.16l.7-.2a.74.74,0,0,1,.63.2c.08.1,0,.2-.27.27s-.62.16-1.41.31l-.35.08L16,5.64a28.92,28.92,0,0,0,3.16-.55l.2,0a1.88,1.88,0,0,1,1.13.66.41.41,0,0,1-.08.16,1.67,1.67,0,0,0-.31.94,17.52,17.52,0,0,1-.23,2.85q-.31.94-1,1.05-.08,0-.23-.35a1.76,1.76,0,0,0-.51-.7q-.35-.27.27-.16t.59.08a3.75,3.75,0,0,0,.43-1.91q.08-1.76-.2-2a3.94,3.94,0,0,0-1.48,0l-.66.08c.31.16.47.29.47.39a1.42,1.42,0,0,1-.23.27,9.06,9.06,0,0,0-.74.66L17.11,7a.91.91,0,0,1,.31-.08.64.64,0,0,1,.47.16c.05.08,0,.14-.2.2L17,7.4a3.52,3.52,0,0,1-.59.12c.1.05.13.16.08.31a2.88,2.88,0,0,1-.08.31,8.21,8.21,0,0,0,1-.16l.31,0a.57.57,0,0,1,.51.23c.05.13,0,.2-.27.2a10.38,10.38,0,0,0-1.52.16l0,.7q0,.82-.27.9a1.68,1.68,0,0,1-.16-.82V8.57a4.06,4.06,0,0,0-.59.16,2.63,2.63,0,0,1-.51.08q-.78-.19-.39-.31.62-.08,1.48-.27V7.6a2.48,2.48,0,0,1-.7.12,1.21,1.21,0,0,1-.55-.12c-.08-.05,0-.1.2-.16q.82-.16,1.45-.31a1.65,1.65,0,0,0,.51-1.29l-3.16.51q.08,1.56.08,2.81,0,.86-.31.9a.91.91,0,0,1-.35-.82.63.63,0,0,1,0-.16,5.48,5.48,0,0,0,0-2.38,2.26,2.26,0,0,0-.16-.51c-.08-.16-.1-.26-.08-.31s.26,0,.63.08a.37.37,0,0,0,.2.08l2-.35.35-1.17a3.1,3.1,0,0,1-1.29,0q-.63-.12-.08-.27l.55-.12A6.54,6.54,0,0,0,16,4a5.62,5.62,0,0,0,.12-.86,2,2,0,0,0-.12-.9A.27.27,0,0,1,16,2ZM15,6.38q-.08-.47.78.2a.43.43,0,0,1-.08.43c-.08.1-.17.1-.27,0A1.78,1.78,0,0,1,15,6.38Z"/><path d="M27.82,3.65a.68.68,0,0,1,.66.47c0,.05-.05.12-.16.2a3.82,3.82,0,0,0-.31.27q-.9,1-1.41,1.48a7.28,7.28,0,0,0,1.72-.43l.12,0a2.32,2.32,0,0,1,1,.47.6.6,0,0,1-.08.23,1.68,1.68,0,0,0-.16.9A7.23,7.23,0,0,0,29.3,8a9.55,9.55,0,0,1,.12,1.68q-.08.94-.62,1.17a1.72,1.72,0,0,1-.23-.51c-.13-.37-.22-.55-.27-.55a14.33,14.33,0,0,0-1.8.08l-.31,0a1,1,0,0,1-.23.7,1,1,0,0,1-.31-.78V9.59a22.09,22.09,0,0,0,.12-2.7,11.74,11.74,0,0,1-3.44,2.34L22,9.31s0-.08.12-.16a14.28,14.28,0,0,0,3.59-2.81.32.32,0,0,0,0-.12c0-.08,0-.13,0-.16s.16,0,.31.08a15.58,15.58,0,0,0,1.56-1.87,1.22,1.22,0,0,0,.16-.43A.47.47,0,0,1,27.82,3.65Zm-3.2.12q.12-.51.31,0a1.7,1.7,0,0,1,0,1q-.27.67-.59.63-.39-.27-.12-.82A2.19,2.19,0,0,0,24.61,3.77ZM26,2.09a1.15,1.15,0,0,1,1.09.35.67.67,0,0,1,0,.16,1.21,1.21,0,0,0-.12.55q0,2.11-.27,2a.55.55,0,0,1-.35-.51,1.05,1.05,0,0,1,0-.23,3.88,3.88,0,0,0,0-1.56,1,1,0,0,0-.27-.62A.39.39,0,0,1,26,2.09Zm2.42,4a5.52,5.52,0,0,0-1.29.2l-.94.2v.78A8.1,8.1,0,0,0,27.15,7a1.86,1.86,0,0,1,.51-.12.44.44,0,0,1,.43.12c.05.08,0,.14-.2.2a3.9,3.9,0,0,1-1.68.23v1L27,8.22a3.56,3.56,0,0,1,.7-.16.68.68,0,0,1,.47.12c0,.1-.05.2-.23.27a4.13,4.13,0,0,1-1.72.16V9.7A11.68,11.68,0,0,1,28,9.35q.16,0,.47.23c.08.1.14.16.2.16A3.8,3.8,0,0,0,28.75,8,5.49,5.49,0,0,0,28.44,6.07Zm.23-2.85q-.39-.27.08-.31A2.71,2.71,0,0,1,30,3.14a.65.65,0,0,1,.31.59c0,.21-.14.27-.35.2A10.29,10.29,0,0,1,28.68,3.22Z"/><path d="M36.8,1.7a1.38,1.38,0,0,1,1,.27s0,.09,0,.2a4.62,4.62,0,0,0-.16,1.33,2.19,2.19,0,0,0,.78-.35.22.22,0,0,1,.16-.08,1.4,1.4,0,0,1,.9.51c0,.05,0,.1-.08.16a.94.94,0,0,0-.31.47l.66-.2A1.29,1.29,0,0,1,40,3.92q1,.23.55.47-.39,0-1.41.08l-.23,0-.2.74a.82.82,0,0,1,.35.23c.05.08,0,.13-.12.16l-.55.12a5.08,5.08,0,0,0-.78.12V6.5a.88.88,0,0,0,.27-.08l.59-.12a.63.63,0,0,1,.51.23c0,.05-.08.1-.31.16l-.82.16-.23,0v.78l1.17-.27a3.52,3.52,0,0,1,.59-.12.79.79,0,0,1,.63.27q.08.2-.35.23a11.56,11.56,0,0,0-2,.16,10,10,0,0,1-.12,1.8,17.18,17.18,0,0,0,1.72.23,16.2,16.2,0,0,1,1.76.16c.21,0,.33,0,.35.08s-.05.1-.23.16q-2.19.7-2.66.35L34.26,8.65a4.54,4.54,0,0,1-1.91,1.72q-.23,0,0-.16a5.38,5.38,0,0,0,1.48-1.8,2.22,2.22,0,0,0-1.09-.35A.93.93,0,0,1,32.27,8c-.08-.08,0-.13.16-.16a1.78,1.78,0,0,1,1.29.2l.23.08q.47-1.13.23-1.52-.16,0-.55.23a.88.88,0,0,1-.23.12c-.13,0-.21-.13-.23-.31s0-.1.12-.16a1.33,1.33,0,0,0,.39-.55,3.86,3.86,0,0,0,.43-1.41s-.12,0-.35.08a1.51,1.51,0,0,1-.55.2.7.7,0,0,1-.43-.12c-.05-.08,0-.13.16-.16A1.63,1.63,0,0,0,34,3.92c.1-.1.18-.16.23-.16q.62.08.78.43c0,.05-.05.1-.16.16a1.93,1.93,0,0,0-.43.51l-.12.35a10.52,10.52,0,0,1-.59,1.21,1,1,0,0,0,.47-.16.11.11,0,0,1,.08,0,.8.8,0,0,1,.78.31A.41.41,0,0,1,35,6.7a.92.92,0,0,0-.2.43,9.14,9.14,0,0,1-.39,1.21,4.1,4.1,0,0,1,.66.31A18.23,18.23,0,0,0,37.31,9.7q0-.59-.08-1.64l-1,.2a.88.88,0,0,1-.27.08q-1-.16-.55-.31.59-.08,1.84-.31l0-.7q-1.8.23-1.13-.12l.31-.08a4.23,4.23,0,0,0,.82-.2l0-.66-.43.12-.62.12a1,1,0,0,1-.39-.12c0-.05,0-.09.2-.12l.39-.08q.43-.08.86-.2V4.9L36,5.17a1.92,1.92,0,0,1-.47.12q-1.21,0-.55-.23t2.11-.47V3.92a5.77,5.77,0,0,0-.78.2l-.16,0q-.74-.19-.35-.31.94-.16,1.25-.23A6.92,6.92,0,0,0,36.84,2,.37.37,0,0,1,36.8,1.7Zm1.68,1.88a1.18,1.18,0,0,0-.39.12l-.47.12v.66l.9-.2Q38.67,3.53,38.48,3.57Zm0,1a2.17,2.17,0,0,0-.43.08l-.47.12V5.6l.74-.16V5.37A5.11,5.11,0,0,1,38.52,4.59Z"/><path d="M44,5a.94.94,0,0,1,.78.47s0,.05-.08.08a.84.84,0,0,0-.47.7q-.16,1.56-.16,2.38a5.51,5.51,0,0,0,.59-.47q.82-.62.86-.51s-.08.16-.31.39l-1,1.17q-.16.16-.35.39t-.35.27q-.31,0-.35-.62A.48.48,0,0,1,43.25,9a1.41,1.41,0,0,0,.31-.62q0-.7.16-1.72.08-.86,0-.82s-.2.05-.51.23a2,2,0,0,1-.66.27A1,1,0,0,1,42,6.07q-.2-.19,0-.23a2.55,2.55,0,0,0,1.84-.7C43.91,5.06,44,5,44,5Zm-.47-2q-.23-.27.27-.23a2.07,2.07,0,0,1,1,.39.79.79,0,0,1,.2.63q-.08.23-.35.12A4.62,4.62,0,0,1,43.52,3ZM48,5.68a1.38,1.38,0,0,1,1,.51.32.32,0,0,1-.12.2,2.08,2.08,0,0,0-.39.55,6.94,6.94,0,0,1-.59,1.33,4.56,4.56,0,0,0,1.6.94,7.88,7.88,0,0,0,1.6.35c.18,0,.27.07.27.12s-.09.07-.27.12q-2.23.51-2.46,0l-.55-.55a5.5,5.5,0,0,0-.55-.55A5.21,5.21,0,0,1,46,9.63q-1.68.47-.78,0a5.57,5.57,0,0,0,2-1.29A6.57,6.57,0,0,0,46.06,7a1,1,0,0,0-.23-.16c-.13-.05-.17-.1-.12-.16s.27-.1.59.08A6.24,6.24,0,0,1,47.5,7.91,3.28,3.28,0,0,0,48,6.19a1.78,1.78,0,0,0-.62.16,2.5,2.5,0,0,1-.66.2.84.84,0,0,1-.51-.08c-.08-.08,0-.13.16-.16a5.29,5.29,0,0,0,1.56-.55C47.95,5.71,48,5.68,48,5.68Zm.12-3.36q.66.12.82.39s-.05.09-.16.2a1,1,0,0,0-.39.63c0,.05,0,.21,0,.47q0-.27,0,.16t.66.51a1.64,1.64,0,0,0,.47-.16.6.6,0,0,1,.23-.08q.74.12.51.47t-1,.23q-1.41,0-1.37-1.05,0-.23,0-.62c.05-.23.05-.36,0-.39a1.35,1.35,0,0,0-.55.08,2.63,2.63,0,0,1-.51.08,2.63,2.63,0,0,1-1,2.66q-.59.27-.2-.16a2.21,2.21,0,0,0,.63-2.27,1.17,1.17,0,0,0-.31-.55c-.05-.05-.07-.09,0-.12s.35-.06.9.12A1.87,1.87,0,0,0,48,2.44C48,2.36,48.08,2.32,48.13,2.32Z"/><path d="M58.17,3.53a1.17,1.17,0,0,1,.78.23c.16.16.1.27-.16.35q-.67.12-2.34.35a.16.16,0,0,0,.12,0q.43.2.39.35V5a7,7,0,0,0-.16,1.76q0,1,0,1.41,1.09-.12,2.19-.27a2.73,2.73,0,0,1,.74,0,1.5,1.5,0,0,1,1,.47c.13.23,0,.37-.35.39l-.47,0a19,19,0,0,0-6.41.47,1.34,1.34,0,0,1-.86-.31q-.31-.23.12-.27a23.44,23.44,0,0,0,3.48-.31,14,14,0,0,0-.12-3.71L55,4.7a1.86,1.86,0,0,1-.86-.23q-.16-.16.43-.23a17.1,17.1,0,0,0,3-.55A3.32,3.32,0,0,1,58.17,3.53Z"/><path d="M65.28,2.44A1.16,1.16,0,0,1,66.1,3a3.79,3.79,0,0,1-1,.35l-.47.16.27.12c.18.08.27.14.27.2a.66.66,0,0,1,0,.2A3.45,3.45,0,0,0,65,5l.59-.16a1.29,1.29,0,0,1,.31-.08c.39,0,.57.13.55.31a.94.94,0,0,1-.47.12q-.55.08-1.05.2V6.46a1.82,1.82,0,0,1,.94.12q.43.43,0,.63a3.8,3.8,0,0,1-.74-.43l-.23-.16V9.47q0,.86-.35,1a1.86,1.86,0,0,1-.31-.86.3.3,0,0,1,0-.12A18,18,0,0,0,64.65,6a5.13,5.13,0,0,1-2.15,2.3q-.51.31-.62.27c-.05,0,.05-.1.31-.31a10.24,10.24,0,0,0,2.34-2.73,11.07,11.07,0,0,0-1.64.39.37.37,0,0,1-.2.08,1.22,1.22,0,0,1-.62-.27q-.23-.16,0-.2a23,23,0,0,0,2.54-.43,2.58,2.58,0,0,0-.23-1.37l-.78.2a1,1,0,0,1-.47.08q0-.08.31-.23,1.68-.86,1.8-1.21A.11.11,0,0,1,65.28,2.44ZM69.42,5.6q.55,0,.63.16c.05.08-.08.17-.39.27a4.67,4.67,0,0,1-1.21.23v1l.47-.12a.63.63,0,0,1,.35,0c.26,0,.4.08.43.16s-.12.2-.35.27l-.31,0-.62.08V8.73q.66-.08,1.29-.2a1.59,1.59,0,0,1,.66-.08q1.17.43.59.7h0a13,13,0,0,0-4.73.31,1.55,1.55,0,0,1-.66-.23q-.16-.12.2-.16a14.65,14.65,0,0,0,2.19-.27V7.67a1,1,0,0,1-.35,0h-.16q-1-.08-.51-.23a5.17,5.17,0,0,0,1-.16v-1a2,2,0,0,1-.62.08q-1.13-.16-.59-.27a13.26,13.26,0,0,0,2.46-.47Zm-.35-2.81q1.09.2,1.17.74,0,.08-.12.12a1.57,1.57,0,0,0-.66.74q.23.23.12.35a.45.45,0,0,1-.31.08,10.48,10.48,0,0,0-1.72.27c0,.13-.09.2-.2.2s-.18-.12-.23-.27a5.41,5.41,0,0,0-.51-1.68c-.05-.1-.07-.17,0-.2s.4-.05.82.08a3.93,3.93,0,0,0,1.52-.39Zm0,.47a3.23,3.23,0,0,0-.86.12c-.39.08-.69.13-.9.16l.12.74a3.06,3.06,0,0,0,0,.51,5,5,0,0,0,1.37-.27,1.52,1.52,0,0,0,.23-.62A1.16,1.16,0,0,0,69.07,3.26Z"/><path d="M74.18,2.13a1,1,0,0,1,.94.35,1.1,1.1,0,0,1,0,.23,10.23,10.23,0,0,0-.2,1.91,4.15,4.15,0,0,1,.86-.2.88.88,0,0,1,.63.12c.08.1,0,.2-.27.27a5,5,0,0,1-.66.16l-.59.16v.74a1.87,1.87,0,0,1,.86.31.58.58,0,0,1,.2.51c-.08.16-.21.17-.39,0a1.63,1.63,0,0,1-.43-.43l-.23-.23V8.26q0,1.84-.35,1.84c-.23-.1-.35-.42-.35-.94a1.13,1.13,0,0,1,0-.27,13,13,0,0,0,.31-3.12,5.83,5.83,0,0,1-2.23,2.77c-.18.1-.29.14-.31.12s0-.12.16-.27a10.63,10.63,0,0,0,2.23-3.16,5.43,5.43,0,0,1-1.6.2q-.82-.08-.12-.27,1.09-.27,1.88-.43v-.9a3,3,0,0,0-.31-1.45Q74.1,2.21,74.18,2.13ZM78.4,2a1.37,1.37,0,0,1,1.13.43,1.71,1.71,0,0,1,0,.27,8.58,8.58,0,0,0-.23,2,6,6,0,0,1,1.17-.27.74.74,0,0,1,.55.2q.16.2-.16.27a7.91,7.91,0,0,1-1.56.35,19,19,0,0,0,0,2q0,1.37,0,1.91,0,1.29-.7,1.56s-.1-.1-.23-.31a3.8,3.8,0,0,0-.74-.86q-.35-.31.31-.12a1.42,1.42,0,0,0,.59.12q.12,0,.16-.94c0-.29,0-.66,0-1.13V5.49a6,6,0,0,1-2.89,2.89q-.7.27-.23-.12A10.83,10.83,0,0,0,78.4,5.33a6.77,6.77,0,0,1-1.84.12q-.74-.12,0-.31l2.19-.43v-.9a3.55,3.55,0,0,0-.31-1.52C78.36,2.13,78.35,2,78.4,2Z"/><path d="M84.26,2a1.73,1.73,0,0,1,1.05.47.31.31,0,0,1,0,.12,7.93,7.93,0,0,0-.39,2.7,3,3,0,0,0,.55-.16A2.4,2.4,0,0,0,85.82,5a.62.62,0,0,1,.39.23c.05.1,0,.17-.16.2a3.31,3.31,0,0,0-.55.08,4.74,4.74,0,0,0-.59.08l0,1.05h0a1.88,1.88,0,0,1,.9.35.49.49,0,0,1,.2.55q-.16.27-.39,0a2.2,2.2,0,0,0-.43-.47l-.27-.27v2.7a1.34,1.34,0,0,1-.27.86q-.35-.2-.47-1a.63.63,0,0,1,0-.16,11.69,11.69,0,0,0,.31-2.93,6.7,6.7,0,0,1-2.38,2.5q-.31.2-.35.12t.27-.35A10.77,10.77,0,0,0,84.3,5.72a6.39,6.39,0,0,0-1.48.43,1.28,1.28,0,0,1-.35.12q-.82-.31-.39-.47.7-.12,2.46-.47V3.73a3.53,3.53,0,0,0-.27-1.48C84.18,2.11,84.18,2,84.26,2ZM83.17,4.16q-.12-.59.86.08a.59.59,0,0,1,0,.59c-.08.13-.2.12-.35,0A4.65,4.65,0,0,1,83.17,4.16Zm2.66-.78a.69.69,0,0,1,.59.59s0,0-.08,0a1,1,0,0,0-.23.12q-1.17.67-.74.16a1.38,1.38,0,0,0,.39-.74A.41.41,0,0,1,85.82,3.38Zm2.07-1.64q.39-.23,1.21.39a.66.66,0,0,1,0,.2,2.4,2.4,0,0,0-.16.9V6a6.48,6.48,0,0,0,.9-.23,2.37,2.37,0,0,1,.66-.12q1,.23.55.66h-.23a8.89,8.89,0,0,0-1.87,0V9.63q0,1.29-.27,1.29a2.64,2.64,0,0,1-.23-1.17V6.38A13,13,0,0,0,87,6.7a1.88,1.88,0,0,1-.55.12,1.36,1.36,0,0,1-.59-.23c-.08-.08,0-.13.2-.16q.86-.12,2.38-.39l0-2.11a4.22,4.22,0,0,0-.43-2C87.88,1.81,87.87,1.76,87.89,1.74ZM86.8,5.21q-.35-.23-.12-.27a1.72,1.72,0,0,1,.86.08.53.53,0,0,1,.16.47c0,.13-.12.17-.27.12l-.2-.12A3.73,3.73,0,0,0,86.8,5.21Zm.12-1.37q-.39-.47.74-.08a.41.41,0,0,1,.16.51q-.16.23-.43,0l-.16-.12Z"/><path d="M97.62,2.67q.19-.08.7.2t.23.35a4.69,4.69,0,0,0-1.13,1.56L97,5.52l.66-.12a.9.9,0,0,1,.27-.08q.86.2.7.55a3.62,3.62,0,0,0-.66.94,6.07,6.07,0,0,1-.59,1,8,8,0,0,0,3.75,1.68q.19,0,.23.12c0,.05-.07.09-.2.12l-.27,0a9.09,9.09,0,0,1-2,.12q-.16.08-1.84-1.68a3.52,3.52,0,0,1-2.7,1.13c-.21,0-.31,0-.31-.08s.09-.09.27-.12h.08a4.4,4.4,0,0,0,2.3-1.29l-.47-.51a7.3,7.3,0,0,0-1.17-1.17,7.91,7.91,0,0,1-2.77,3.24q-.43.23-.51.2t.31-.39a8,8,0,0,0,3-5.43,5,5,0,0,0-1.25.43c-.13.05-.31,0-.55-.2s-.23-.29-.08-.31A15,15,0,0,0,97.62,2.67Zm-.2.66a7.58,7.58,0,0,0-1.91.35c.34.13.48.27.43.43a3.88,3.88,0,0,0-.27.63q-.27.7-.51,1.21A7.53,7.53,0,0,1,96.68,7.2l.31.27a3.69,3.69,0,0,0,.66-1.72,1.4,1.4,0,0,0-1,.23c-.23,0-.26-.2-.08-.51A4.57,4.57,0,0,0,97.43,3.34Z"/><path d="M104,5a.94.94,0,0,1,.78.47s0,.05-.08.08a.84.84,0,0,0-.47.7q-.16,1.56-.16,2.38a5.51,5.51,0,0,0,.59-.47q.82-.62.86-.51s-.08.16-.31.39l-1,1.17q-.16.16-.35.39t-.35.27q-.31,0-.35-.62a.48.48,0,0,1,.12-.23,1.41,1.41,0,0,0,.31-.62q0-.7.16-1.72.08-.86,0-.82s-.2.05-.51.23a2,2,0,0,1-.66.27,1,1,0,0,1-.55-.31q-.2-.19,0-.23a2.55,2.55,0,0,0,1.84-.7C103.91,5.06,104,5,104,5Zm-.47-2q-.23-.27.27-.23a2.07,2.07,0,0,1,1,.39.79.79,0,0,1,.2.63q-.08.23-.35.12A4.62,4.62,0,0,1,103.52,3ZM108,5.68a1.38,1.38,0,0,1,1,.51.32.32,0,0,1-.12.2,2.08,2.08,0,0,0-.39.55,6.94,6.94,0,0,1-.59,1.33,4.56,4.56,0,0,0,1.6.94,7.88,7.88,0,0,0,1.6.35c.18,0,.27.07.27.12s-.09.07-.27.12q-2.23.51-2.46,0l-.55-.55a5.5,5.5,0,0,0-.55-.55,5.21,5.21,0,0,1-1.56.94q-1.68.47-.78,0a5.57,5.57,0,0,0,2-1.29A6.57,6.57,0,0,0,106.06,7a1,1,0,0,0-.23-.16c-.13-.05-.17-.1-.12-.16s.27-.1.59.08a6.24,6.24,0,0,1,1.21,1.09A3.28,3.28,0,0,0,108,6.19a1.78,1.78,0,0,0-.62.16,2.5,2.5,0,0,1-.66.2.84.84,0,0,1-.51-.08c-.08-.08,0-.13.16-.16a5.29,5.29,0,0,0,1.56-.55C107.95,5.71,108,5.68,108,5.68Zm.12-3.36q.66.12.82.39s-.05.09-.16.2a1,1,0,0,0-.39.63c0,.05,0,.21,0,.47q0-.27,0,.16t.66.51a1.64,1.64,0,0,0,.47-.16.6.6,0,0,1,.23-.08q.74.12.51.47t-1,.23q-1.41,0-1.37-1.05,0-.23,0-.62c.05-.23.05-.36,0-.39a1.35,1.35,0,0,0-.55.08,2.63,2.63,0,0,1-.51.08,2.63,2.63,0,0,1-1,2.66q-.59.27-.2-.16a2.21,2.21,0,0,0,.63-2.27,1.17,1.17,0,0,0-.31-.55c-.05-.05-.07-.09,0-.12s.35-.06.9.12A1.87,1.87,0,0,0,108,2.44C108,2.36,108.08,2.32,108.13,2.32Z"/><path d="M115.43,1.81q.82.35.63.55a3.35,3.35,0,0,0-.74,1,2.83,2.83,0,0,0,1.88-.59q1,.23,1,.63a4.79,4.79,0,0,0-.78.82,8.93,8.93,0,0,1-.82,1,13.77,13.77,0,0,0,4.26,1.6l.16,0c.23.05.36.1.39.16s-.1.1-.31.16a9,9,0,0,1-1.87.27,13,13,0,0,1-3-1.87,12.7,12.7,0,0,1-2.27,1.64l.35.12a26.23,26.23,0,0,0,3-.51q1,.16,1.17.82a3.81,3.81,0,0,0-.27,1.29,1.05,1.05,0,0,0,0,.23q-.08,1.37-.7,1.52c-.08,0-.17-.08-.27-.31a2.22,2.22,0,0,0-.35-.55l-1.76.12-.59,0q0,.43-.16.39t-.23-.51q-.08-.47-.2-1.64a2.27,2.27,0,0,0-.27-.9,4.25,4.25,0,0,1-1.48.63.9.9,0,0,1-.43,0c0-.05.06-.12.27-.2a12.85,12.85,0,0,0,3.75-2.58,14,14,0,0,0-1.25-.74.44.44,0,0,0-.08.12,8.66,8.66,0,0,1-.82.9q-.39.31-.47.27s0-.16.2-.39A7.15,7.15,0,0,0,115.08,2Q115,1.74,115.43,1.81Zm.2,5.59a6.39,6.39,0,0,1-1,.16l-.23,0q.08,1,.16,2.19a7.36,7.36,0,0,1,1.09-.16l0-1q-1,.12-.94-.23a7,7,0,0,1,1-.16A2.91,2.91,0,0,0,115.63,7.4ZM117,3.45l-.55.08a3,3,0,0,1-.86.12l-.12,0a.42.42,0,0,1-.31-.12s-.2.29-.51.78a5.82,5.82,0,0,1,1.37.66A5.11,5.11,0,0,0,117,3.45Zm.51,3.83a3.1,3.1,0,0,0-1.48,0,.35.35,0,0,1,.2.31l-.08.55a1.13,1.13,0,0,0,.27,0q.62-.19.82.12.12.12-.9.27l-.23,0-.08,1,.23,0a1.21,1.21,0,0,1,.55-.08.43.43,0,0,1,.27.16q.16.16.23.12a3.53,3.53,0,0,0,.31-1.45Q117.74,7.44,117.54,7.28Z"/><path d="M124.65,2.4q.86.47.66.66a6,6,0,0,0-.59.86,12.93,12.93,0,0,1-.78,1.21c.26.21.39.39.39.55q0,1.21-.08,4,0,.66-.2.66c-.18-.05-.33-.27-.43-.66,0-.08,0-.26,0-.55q.12-.66.16-1.17a9.67,9.67,0,0,0-.08-2.62,6.62,6.62,0,0,1-1.29,1.25q-.43.31-.47.27t.35-.51q2.15-2.38,2-3.79a.23.23,0,0,1,0-.23A.28.28,0,0,1,124.65,2.4Zm2.5-.43q.78.23.7.51a1.93,1.93,0,0,1-.35.51,7.1,7.1,0,0,0,3.4,2.38c.23.08.36.14.39.2s-.1.13-.31.16a5.69,5.69,0,0,1-1.41,0,6.92,6.92,0,0,1-1.17-1.29l-1-1.17a.41.41,0,0,0-.08.16,6,6,0,0,1-2.3,3c-.21.13-.35.17-.43.12s.05-.16.23-.31a6.36,6.36,0,0,0,2.15-4,.22.22,0,0,1,0-.27Q127,1.89,127.15,2Zm-.7,3.83q.74.2.55.51a2.38,2.38,0,0,0-.08.55q0,.43-.08.63a3,3,0,0,1-1.25,2.19c-.29.16-.43.22-.43.2s.08-.13.31-.39a3.8,3.8,0,0,0,.9-2.42A2.7,2.7,0,0,0,126.25,6c-.08-.1-.1-.17-.08-.2A.38.38,0,0,1,126.45,5.8Zm1.72-.47c.34.13.51.29.51.47a3.77,3.77,0,0,0,0,1.09,14.21,14.21,0,0,0,.08,1.8q.08,1.68-.23,1.91-.2.08-.39-.7V9.43q.08-.82.08-1.52a8.67,8.67,0,0,0-.27-2.38q-.2-.23-.12-.23C127.8,5.24,127.93,5.25,128.17,5.33Z"/><path d="M134.1,2.13q.78.35.66.59a6.52,6.52,0,0,0-.39,2,4.41,4.41,0,0,1,1-.2c.34.08.47.18.39.31a3.39,3.39,0,0,1-1.37.39,4.37,4.37,0,0,1,0,.82v0a2.15,2.15,0,0,1,.86.12q.43.43.08.7a1.72,1.72,0,0,1-.43-.31,3.85,3.85,0,0,0-.51-.35v2.3a10.29,10.29,0,0,1,0,1.13q-.08.9-.27.94t-.35-.9s0-.13,0-.31a9.68,9.68,0,0,0,.2-1.41q0-.51,0-2.11a8.6,8.6,0,0,1-1.72,2.5q-.31.27-.39.23c-.05-.08,0-.22.2-.43a14.75,14.75,0,0,0,1.64-2.81,3.92,3.92,0,0,1-1.05.08,1,1,0,0,1-.47-.16c-.08-.05,0-.09.16-.12A7.63,7.63,0,0,0,134,4.82a6,6,0,0,0-.2-2.5q-.08-.16,0-.23A.48.48,0,0,1,134.1,2.13Zm2.89.35a.31.31,0,0,1,0-.2.36.36,0,0,1,.23,0q.94.23.63.47a5.9,5.9,0,0,0-.78,1.13q1.21-.16,1.41-.47.94.2.9.63a3.6,3.6,0,0,0-.94,1.05q-.27.43-.43.63a7.81,7.81,0,0,0,3.09,1.37c.18,0,.29.08.31.16s-.08.1-.23.16l-.31,0a8.55,8.55,0,0,1-1.45.12,10,10,0,0,1-1.68-1.41A7.79,7.79,0,0,1,135.32,8a1.35,1.35,0,0,1-.59.16s.09-.13.35-.31a11.39,11.39,0,0,0,2.27-2l-1-.78a4.08,4.08,0,0,1-.47.47c-.18.16-.3.21-.35.16s0-.21.2-.39A4.26,4.26,0,0,0,137,2.48Zm1.48,5.16q.94,0,1.17.62a1.69,1.69,0,0,0-.62,1q.31.35.27.47a2.27,2.27,0,0,1-.9.12l-1.72.08q0,.35-.12.35a.62.62,0,0,1-.31-.39,3.41,3.41,0,0,0-.08-.35,8.94,8.94,0,0,0-.27-1.33c-.05-.1-.07-.17,0-.2s.05-.06.16,0l.51,0A6.85,6.85,0,0,0,138.48,7.63ZM137.27,4.2a1.23,1.23,0,0,1-.27-.12q-.43.74-.55.74a4.78,4.78,0,0,1,1.09.66,3.31,3.31,0,0,0,.7-1.41c-.05-.05-.23,0-.55,0A2.11,2.11,0,0,1,137.27,4.2Zm1.25,4a2.64,2.64,0,0,0-1.17,0l-.82.12a8.93,8.93,0,0,0,.16,1.21v.12q.47-.08,1-.12a1.6,1.6,0,0,0,.63-.16A1.43,1.43,0,0,0,138.52,8.18Z"/><path d="M145.35,3.18a.32.32,0,0,1-.12.2,4.91,4.91,0,0,0-.51.7,4.19,4.19,0,0,1-.55.78,1.18,1.18,0,0,1,.43.7v.16q-.08,1.17-.12,3.83-.08.78-.27.86-.35-.12-.39-.86l0-.08a13.41,13.41,0,0,0,.27-1.68A12.24,12.24,0,0,0,144,5.17a6.75,6.75,0,0,1-1.64,1.64q-.51.35-.55.31c-.05,0,0-.13.27-.39a11,11,0,0,0,1.64-2.11,3.22,3.22,0,0,0,.66-2,.25.25,0,0,1,0-.2A1,1,0,0,1,145.35,3.18Zm4.77.59a1.74,1.74,0,0,1,.86.31q.19.27-.27.31a17.72,17.72,0,0,0-4.14.35c-.39.08-.7.13-.94.16a.86.86,0,0,1-.51-.27c-.05-.08,0-.13.23-.16a33.91,33.91,0,0,0,4.34-.62ZM148.95,7.6Q150,8,150,8.3s-.05.08-.16.16a4,4,0,0,0-.66.78q.31.16.27.35a2.21,2.21,0,0,1-.86.16q-.9,0-1.68.12c0,.23-.08.35-.16.35a.82.82,0,0,1-.31-.47,4.43,4.43,0,0,0-.43-1.52c-.05-.1-.07-.17,0-.2a1.86,1.86,0,0,1,.63.08h.08a4.81,4.81,0,0,0,2-.43Zm-.39-1.13a.93.93,0,0,1,.59.12q.12.16-.2.27-1.09.2-1.91.27a1.31,1.31,0,0,1-.66-.16q-.12-.12.35-.12l.66-.16A10,10,0,0,1,148.56,6.46Zm.16-1.21a.61.61,0,0,1,.51.2q.08.2-.27.23-1.17.2-1.84.27a1.36,1.36,0,0,1-.55-.16q-.16-.12.16-.16a7.82,7.82,0,0,0,1.13-.23A4.35,4.35,0,0,1,148.71,5.25Zm.16,3q-.12-.19-1.91.16l-.16,0L147,9.59q1.25-.16,1.68-.23A2.36,2.36,0,0,0,148.87,8.22Zm-1.72-5.74a1.43,1.43,0,0,1,.66,0,1.15,1.15,0,0,1,.55.16q.51.55.08.9A2.5,2.5,0,0,1,147.15,2.48Z"/><path d="M153.25,7.75q.27-.19.39.9a1.68,1.68,0,0,1-.43,1.05q-.27.27-.47.12a.65.65,0,0,1-.12-.7L152.7,9A2.19,2.19,0,0,0,153.25,7.75Zm2.46-5.9a1.4,1.4,0,0,1,1.13.43s0,.07-.12.12a7.88,7.88,0,0,0-1.45,1.41,7.27,7.27,0,0,0,2.07-.62l.12,0a1.47,1.47,0,0,1,1.17.63.32.32,0,0,1-.12.2,1.67,1.67,0,0,0-.31,1,3.33,3.33,0,0,1,0,.43A8,8,0,0,1,158,6.89q-.23.82-.47.86t-.23-.39a1.28,1.28,0,0,0-.08-.27q-.35,0-2.15.27c0,.18-.05.29-.16.31a.88.88,0,0,1-.35-.74V6.81a7.9,7.9,0,0,0,0-1.72A2,2,0,0,0,154.22,4c-.08-.1-.09-.18,0-.23s.33-.08.74.08q.94-1.29.78-1.87Zm-1.45,6.05c0-.08,0-.12.08-.12s.09,0,.12.12q.59,1.6,1.33,1.91a4.65,4.65,0,0,0,1.68.27,2.34,2.34,0,0,0,1.37-.23q0-.08-.27-.66-.35-.78-.08-.51a12.18,12.18,0,0,0,1,.9c.31.21.47.35.47.43q0,.47-1.64.66a4.84,4.84,0,0,1-2.34-.27A2.72,2.72,0,0,1,154.26,7.91ZM157,3.69a17.86,17.86,0,0,0-2,.39V4.9a9.43,9.43,0,0,0,1.05-.31,1.86,1.86,0,0,1,.51-.12.46.46,0,0,1,.39.16c0,.08,0,.14-.2.2a6.17,6.17,0,0,1-1.72.27v.82a4.58,4.58,0,0,0,1-.2,3,3,0,0,1,.55-.16q.62.08.35.31a5.7,5.7,0,0,1-1.87.27v.94l1.13-.2a1.1,1.1,0,0,1,1.09.08,7.59,7.59,0,0,0,.27-2.73V4.16Q157.7,3.53,157,3.69ZM156,7.87q.23-.23,1.05.43a.66.66,0,0,1,0,.59.25.25,0,0,1-.39.08A6,6,0,0,1,156,7.87Zm4.22-.35q.78.67.2.94a6.49,6.49,0,0,1-1.68-.86q-.31-.23.31-.27A2.73,2.73,0,0,1,160.2,7.52Z"/><path d="M3.55,27.68H2.46V15H3.55v.6a.9.9,0,0,1,1-.6Q6.07,15,6,16.47v2.46q.05,1.64-1.42,1.59,1.53.06,1.42,1.75v2.19q.05,1.86-1.26,1.8a1.64,1.64,0,0,1-1.2-.49Zm.77-12.3a.86.86,0,0,0-.77.44V20.4Q5,20.35,4.86,19V16.41Q4.92,15.37,4.32,15.37Zm.6,9.08V22.21q.16-1.69-1.37-1.48v4.81a1.69,1.69,0,0,0,.71.11Q5,25.71,4.92,24.45Zm2.9-1.75h1a25,25,0,0,1-1,3.17,1.42,1.42,0,0,1-1.64.88c-.11,0-.16,0-.16-.05s0-.07.05-.11Q6.72,26.25,7.82,22.7ZM8.47,15h1a4.33,4.33,0,0,1-.22.6.41.41,0,0,0-.05.16A2,2,0,0,1,10.77,15a2.16,2.16,0,0,1,2.35,1.64q.16.33.44.93t.38.82a2.69,2.69,0,0,0,1,1.31c.07,0,.11.07.11.11a.22.22,0,0,1-.16.05,1.63,1.63,0,0,1-2-1.2A12.62,12.62,0,0,1,12.19,17q-.6-1.64-1.8-1.53a2,2,0,0,0-1.26.49q-.49,1.37-1,2.52a1.81,1.81,0,0,1-2,1.48c-.15,0-.16,0-.05-.11Q6.89,19.47,8.47,15Zm4.1,4.32H11v2.24h3.72v.38H11V26.2q0,1.58-1.48,1.59a3.32,3.32,0,0,1-2.24-.87q-.16-.11-.16-.16s.11,0,.22,0a.16.16,0,0,1,.11.05,3.82,3.82,0,0,0,1.37.27q1.15.05,1.09-.82V21.93H6.34v-.38H9.95V19.31H8.25v-.38h4.32ZM12,22.7h1.15q1,3.5,1.75,3.88c.07,0,.09.07.05.11s0,.09-.11.05q-1.42,0-1.75-.87a17.86,17.86,0,0,1-.77-2.19Z"/><path d="M19.3,25.05V20.18h1v.66a.85.85,0,0,1,.66-.55V18.54H18.86v-.38H21v-2H19.13V15.7h1.59q1.58.11,2-.44h1.53q-.49.88-2.19.87v2h2v.38H22v1.7q1.86-.11,1.7,1.53V25a3.19,3.19,0,0,0,.38,2c.07,0,.07.05,0,.05q-1.53.16-1.42-2V21.72q.11-1.15-.66-1.09v7.11H21V20.62a1.16,1.16,0,0,0-.66.66v3.83q.05,2.13-1.37,2.08s0,0,0-.05A4.08,4.08,0,0,0,19.3,25.05Zm6.51-1.86H26.9a16,16,0,0,1-.49,3,1.83,1.83,0,0,1-2.19,1.59c-.18,0-.2,0-.05-.11a2.28,2.28,0,0,0,1.15-1.48Q25.48,25.49,25.81,23.19Zm-.22-.66h-1V17.89h1v.93q.22-1,1.53-.93h1.64q2.52-.05,2.41,1.42v1.86q.11,1.48-2.41,1.42H27.12q-1.37.11-1.53-.93Zm-.66-7.71h1a4.59,4.59,0,0,0,1.31,2.3c.18.07.16.11-.05.11q-1.09.06-1.42-.38A6.48,6.48,0,0,1,24.93,14.82ZM27,18.27a1.44,1.44,0,0,0-1.42.66v2.63a1.27,1.27,0,0,0,1.42.66h1.7q1.37,0,1.37-.93v-2q.11-1-1.37-1Zm2.57-3.5h1q-.66,2.84-2.3,2.46-.33,0-.05-.11Q28.87,16.79,29.58,14.77Zm1,12.74h-.44q-1.75.16-1.64-2v-2.3h1.09v2.35q-.06,1.53.71,1.42h.11q1,.11,1.31-2c.07-.33.11-.31.11.05Q31.93,27.57,30.56,27.51Z"/><path d="M39.69,22.59V21.17q.05-.76-.71-.71h-3.5v-.38H39Q41,20,40.73,21.22v1.31a1.53,1.53,0,0,1-1.59,1.8c-.11,0-.13,0-.05-.11Q39.75,23.9,39.69,22.59Zm-2.08,3.72V20.9h1v5.36q.05,1.86-1.37,1.7a1.93,1.93,0,0,1-1.59-.87q-.22-.27.11-.11a2.73,2.73,0,0,0,1.26.38Q37.61,27.29,37.61,26.31Zm-1.48-9.52h1l.33.49q.22.33.6.82l1.37-1.42q.38-.44.16-.66a1.18,1.18,0,0,0-.93-.27H35.86v-.38h3.45q1.15-.05,1.37.38.44.55-.44,1.42l-1.64,1.7a3.1,3.1,0,0,0,.66.55q.27.11,0,.11a1.73,1.73,0,0,1-1.53-.38A9.55,9.55,0,0,1,36.14,16.79Zm8.15,4.65V19.25h1v2.41a5.6,5.6,0,0,1-.44,2.46h.49q2.46,3.12,3.39,3.55l.16.11s-.07.05-.22.05a2.49,2.49,0,0,1-2.46-1.2,15.74,15.74,0,0,1-1.64-2q-.05.11-.22.38l-.27.38a19.79,19.79,0,0,1-1.75,1.75,2.33,2.33,0,0,1-1.91.66.43.43,0,0,1-.27-.05q0-.11.16-.16a11.4,11.4,0,0,0,3.17-3A4.87,4.87,0,0,0,44.29,21.44Zm3.88-5.58H41.33v-.38h6.84ZM42.7,25.05h-1V18h1v.88a1.19,1.19,0,0,1,.88-.87,6.57,6.57,0,0,0,.82-1.8h1.09q-.38,1.53-.87,1.75h1q2.46-.05,2.41,1.48v5.63H46.91V19.31q.11-1-1.37-.93H44.12Q43,18.33,42.7,19Z"/><path d="M54.4,14.77h1q-.22.55-.49,1.15H59.1v.33H54.78l-.49,1a1.92,1.92,0,0,1-2,1c-.07,0-.07-.07,0-.11Q53.14,17.67,54.4,14.77Zm.88,10v-.6h1.09v.55a2.55,2.55,0,0,1-.05.49h5.41v-1h1.09v1h2.79v.44H62.82v2.24H61.73V25.6H56.26a6,6,0,0,1-.49,1.15q-.49,1.15-2.19,1c-.11,0-.13-.07-.05-.11a4.42,4.42,0,0,0,1.59-2.08H52.49v-.44h2.73A1.81,1.81,0,0,0,55.27,24.72Zm-.33-.93h-1V18.22h1v.88a1.26,1.26,0,0,1,1.37-.87h5.41q2.73-.16,2.46,1.75V22q.11,1.7-2.46,1.64H56.1a1,1,0,0,1-1.15-.77Zm1.48-5.25a1.64,1.64,0,0,0-1.48.66v.71h8.2v-.05q.16-1.42-1.48-1.31Zm-1.48,1.7v1.37h8.2V20.24Zm6.56,3.06q1.69.06,1.64-1.31v-.05h-8.2v.82a1.64,1.64,0,0,0,1.15.55Zm-6.18-6.84h1a2.69,2.69,0,0,0,1.59,1.15c.07.11.05.16-.05.16a3.27,3.27,0,0,1-1.59-.22Q55.93,17.45,55.33,16.47Zm5.09-1.64h1l-.16.33a7,7,0,0,0-.38.77h4.27v.33H60.69a2.35,2.35,0,0,1-.38.66,1.82,1.82,0,0,1-2,.88c-.11,0-.11,0,0-.11A7.26,7.26,0,0,0,60.42,14.82Zm.93,1.64h1.09q.93,1.26,1.7,1.31c.07,0,.05.07-.05.11A2.27,2.27,0,0,1,61.35,16.47Z"/><path d="M71.46,15h1.09q-.11.38-.44,1.42-.71,2.52-1,3.55a.59.59,0,0,1-.11.33h.55v7.44h-1V21.33a1.94,1.94,0,0,1-1.31.38q-.22.11-.05-.05Q69.87,20.9,71.46,15Zm4.32.88q.49-1,2.13-.87a2.17,2.17,0,0,1,2.35,1.37,11.14,11.14,0,0,1,.44,1.09q.55,1.26.77,1.7a2.28,2.28,0,0,0,.93.93l.11.11q-.22.16-1,0t-1.31-1.31q-.22-.55-.66-1.48a8.23,8.23,0,0,0-.49-1.2,1.44,1.44,0,0,0-1.53-.77h-.11a1.68,1.68,0,0,0-1.8.82l-.11.16q-.05.16-.22.55-.66,1.48-.82,1.75-.66,1.48-1.31,1.59a4.86,4.86,0,0,1-1,0c-.15,0-.16,0-.05-.05a5.27,5.27,0,0,0,1.48-1.86q.49-.87,1.53-3.34h1a9.08,9.08,0,0,1-.38.88Zm-1.09,3.23h1.09v4.43a6.42,6.42,0,0,1-1.15,3.55,2.15,2.15,0,0,1-1.26.66,6.92,6.92,0,0,1-1.09.05l.16-.11A3.59,3.59,0,0,0,73,27.4a5.43,5.43,0,0,0,1.7-3.77Zm5.47,8.7H79.06v-8.7h1.09Z"/></svg>